<?xml version="1.0" encoding="utf-8"?>
<!-- Generator: Adobe Illustrator 16.0.0, SVG Export Plug-In . SVG Version: 6.00 Build 0)  -->
<!DOCTYPE svg PUBLIC "-//W3C//DTD SVG 1.1//EN" "http://www.w3.org/Graphics/SVG/1.1/DTD/svg11.dtd">
<svg version="1.1" id="Capa_1" xmlns="http://www.w3.org/2000/svg" xmlns:xlink="http://www.w3.org/1999/xlink" x="0px" y="0px"
	 width="778px" height="65.667px" viewBox="0 0 778 65.667" enable-background="new 0 0 778 65.667" xml:space="preserve">
<rect x="560.799" y="21.127" fill="#6D6E70" width="8.243" height="41.073"/>
<g>
	<defs>
		<rect id="SVGID_1_" x="-17" y="-264.276" width="807.874" height="595.276"/>
	</defs>
	<clipPath id="SVGID_2_">
		<use xlink:href="#SVGID_1_"  overflow="visible"/>
	</clipPath>
	<path clip-path="url(#SVGID_2_)" fill="#6D6E70" d="M583.7,33.624l0.203,2.024c0.944-0.628,1.983-1.146,3.106-1.553
		c2.21-0.764,4.277-1.147,6.218-1.147c1.846,0,3.366,0.236,4.561,0.708c1.189,0.472,2.148,1.138,2.87,1.992
		c0.718,0.86,1.214,1.903,1.487,3.146c0.27,1.236,0.406,2.624,0.406,4.154V62.2h-8.111V44.704c0-0.724-0.032-1.421-0.099-2.097
		c-0.066-0.675-0.227-1.26-0.472-1.756c-0.251-0.496-0.633-0.888-1.152-1.18c-0.515-0.293-1.228-0.44-2.125-0.44
		c-1.308,0-2.454,0.181-3.446,0.538c-0.854,0.317-1.624,0.7-2.299,1.148V62.2h-8.105V41.324l-0.539-7.7H583.7z"/>
	<polygon clip-path="url(#SVGID_2_)" fill="#6D6E70" points="620.921,56.729 627.271,33.625 635.514,33.625 625.718,62.2 
		615.114,62.2 605.587,33.625 614.236,33.625 620.316,56.729 	"/>
	<path clip-path="url(#SVGID_2_)" fill="#6D6E70" d="M651.259,62.875c-5.27,0-8.976-1.27-11.113-3.814
		c-2.139-2.544-3.206-6.316-3.206-11.316c0-9.866,4.726-14.796,14.187-14.796c2.611,0,4.74,0.35,6.383,1.049
		c1.642,0.698,2.927,1.675,3.853,2.937c0.921,1.261,1.553,2.737,1.889,4.424c0.34,1.688,0.51,3.55,0.51,5.575v2.903h-18.512
		c0,1.982,0.383,3.583,1.147,4.796c1.034,1.666,3.083,2.502,6.146,2.502c2.252,0,4.056-0.259,5.406-0.778
		c1.35-0.516,2.634-1.048,3.853-1.586l1.482,5.065c-0.586,0.363-1.317,0.708-2.195,1.047c-0.879,0.341-1.855,0.666-2.938,0.979
		c-1.08,0.315-2.209,0.565-3.38,0.746C653.6,62.786,652.429,62.875,651.259,62.875 M655.38,44.567c0-2.025-0.335-3.588-1.011-4.692
		c-0.68-1.105-1.803-1.658-3.38-1.658c-1.261,0-2.275,0.194-3.04,0.577c-0.766,0.381-1.364,0.953-1.79,1.723
		c-0.429,0.765-0.688,1.709-0.778,2.838c-0.043,0.358-0.066,0.765-0.066,1.213H655.38z"/>
	<path clip-path="url(#SVGID_2_)" fill="#6D6E70" d="M675.85,33.624l0.406,3.04c0.718-0.901,1.506-1.602,2.365-2.096
		c1.846-1.081,3.782-1.619,5.807-1.619c1.082,0,2.025,0.099,2.838,0.302c0.812,0.203,1.487,0.42,2.025,0.642l-1.889,6.351
		c-0.991-0.586-2.209-0.878-3.649-0.878c-1.529,0-2.993,0.382-4.391,1.151c-0.722,0.358-1.397,0.901-2.025,1.619V62.2h-8.11V41.729
		l-0.878-8.105H675.85z"/>
	<path clip-path="url(#SVGID_2_)" fill="#6D6E70" d="M703.884,39.567v11.688c0,0.724,0.033,1.408,0.099,2.06
		c0.066,0.656,0.227,1.228,0.473,1.723c0.25,0.496,0.617,0.893,1.114,1.186c0.495,0.293,1.194,0.438,2.096,0.438
		c1.124,0,2.172-0.127,3.14-0.372c0.968-0.246,1.884-0.596,2.738-1.049l1.284,5.34c-2.928,1.529-6.194,2.294-9.798,2.294
		c-1.845,0-3.364-0.235-4.56-0.708c-1.194-0.472-2.129-1.138-2.804-1.993c-0.675-0.854-1.147-1.892-1.416-3.11
		c-0.274-1.213-0.406-2.587-0.406-4.116v-13.38h-4.867v-5.268l4.796-0.539v-5.471l8.111-1.421v6.756h9.791v5.943H703.884z"/>
	<path clip-path="url(#SVGID_2_)" fill="#6D6E70" d="M731.582,62.875c-5.269,0-8.975-1.27-11.113-3.814
		c-2.139-2.544-3.206-6.316-3.206-11.316c0-9.866,4.726-14.796,14.187-14.796c2.611,0,4.74,0.35,6.383,1.049
		c1.643,0.698,2.928,1.675,3.852,2.937c0.922,1.261,1.555,2.737,1.89,4.424c0.34,1.688,0.51,3.55,0.51,5.575v2.903h-18.511
		c0,1.982,0.382,3.583,1.146,4.796c1.034,1.666,3.083,2.502,6.147,2.502c2.252,0,4.055-0.259,5.405-0.778
		c1.35-0.516,2.634-1.048,3.853-1.586l1.482,5.065c-0.586,0.363-1.317,0.708-2.195,1.047c-0.878,0.341-1.855,0.666-2.937,0.979
		c-1.082,0.315-2.21,0.565-3.381,0.746C733.923,62.786,732.753,62.875,731.582,62.875 M735.703,44.567
		c0-2.025-0.335-3.588-1.011-4.692c-0.68-1.105-1.803-1.658-3.38-1.658c-1.261,0-2.275,0.194-3.04,0.577
		c-0.765,0.381-1.364,0.953-1.789,1.723c-0.43,0.765-0.689,1.709-0.779,2.838c-0.043,0.358-0.066,0.765-0.066,1.213H735.703z"/>
	<path clip-path="url(#SVGID_2_)" fill="#6D6E70" d="M756.174,33.624l0.405,3.04c0.718-0.901,1.507-1.602,2.366-2.096
		c1.846-1.081,3.781-1.619,5.807-1.619c1.081,0,2.024,0.099,2.837,0.302c0.812,0.203,1.487,0.42,2.024,0.642l-1.888,6.351
		c-0.991-0.586-2.209-0.878-3.649-0.878c-1.529,0-2.993,0.382-4.391,1.151c-0.722,0.358-1.397,0.901-2.025,1.619V62.2h-8.11V41.729
		l-0.878-8.105H756.174z"/>
	<path clip-path="url(#SVGID_2_)" fill="#A70451" d="M250.958,3.433c-2.069,0-3.666,0.834-4.595,2.829l-24.652,56.235h9.74
		l6.069-13.894h16.796l3.714-8.484h-16.8l9.881-22.584l19.714,44.929h9.352L255.549,6.315
		C254.567,4.267,253.023,3.433,250.958,3.433"/>
	<path clip-path="url(#SVGID_2_)" fill="#A70451" d="M140.266,54.119h-9.053l-0.032-41.438h8.996
		c10.799,0,19.581,9.784,19.581,20.736C159.757,44.343,151.027,54.089,140.266,54.119 M140.937,4.205h-18.95v58.393h18.95
		c16.464,0,27.966-11.758,27.966-28.598C168.902,17.014,156.872,4.205,140.937,4.205"/>
	<path clip-path="url(#SVGID_2_)" fill="#A70451" d="M221.829,4.192h-9.59v34.749c0,10.039-3.108,15.198-13.81,15.212v-0.008
		c-0.024,0-0.052,0.008-0.064,0.008c-0.02,0-0.045-0.008-0.069-0.008v0.008c-10.694-0.014-13.801-5.173-13.801-15.212V4.192h-9.591
		v36.819c0,13.437,6.947,22.378,23.441,22.378h0.02h0.007c16.501,0,23.457-8.941,23.457-22.378V4.192z"/>
	<path clip-path="url(#SVGID_2_)" fill="#A70451" d="M293.09,54.021V4.192h-9.279v50.692c0,4.777,3.278,7.612,7.711,7.612h28.907
		l3.715-8.477H293.09z"/>
	<polygon clip-path="url(#SVGID_2_)" fill="#686C70" points="505.132,53.707 505.132,4.19 495.684,4.19 495.684,59.304 
		495.684,62.497 535.656,62.497 535.656,53.707 	"/>
	<path clip-path="url(#SVGID_2_)" fill="#686C70" d="M435.531,33.354c0,16.088-12.374,29.143-27.643,29.143
		c-15.248,0-27.603-13.055-27.603-29.143c0-16.117,12.354-29.163,27.603-29.163C423.157,4.192,435.531,17.238,435.531,33.354
		 M407.775,13.544c-10.75,0-18.234,8.842-18.234,19.769c0,10.913,7.484,19.748,18.234,19.748c10.92,0,18.263-8.835,18.263-19.748
		C426.038,22.386,418.695,13.544,407.775,13.544"/>
	<path clip-path="url(#SVGID_2_)" fill="#686C70" d="M492.365,33.354c0,16.088-12.354,29.143-27.614,29.143
		c-15.28,0-27.623-13.055-27.623-29.143c0-16.117,12.343-29.163,27.623-29.163C480.011,4.192,492.365,17.238,492.365,33.354
		 M464.621,13.544c-10.754,0-18.267,8.842-18.267,19.769c0,10.913,7.513,19.748,18.267,19.748c10.928,0,18.288-8.835,18.288-19.748
		C482.909,22.386,475.549,13.544,464.621,13.544"/>
	<path clip-path="url(#SVGID_2_)" fill="#686C70" d="M352.631,53.063c-10.758,0-18.259-8.837-18.259-19.75
		c0-10.926,7.501-19.769,18.259-19.769c7.529,0,13.36,4.2,16.238,10.376h10.018C375.149,12.448,364.868,4.19,352.736,4.19
		c-15.244,0-27.611,13.049-27.611,29.166c0,16.091,12.367,29.141,27.611,29.141c12.617,0,23.242-8.908,26.552-21.115h-9.873
		C366.739,48.277,360.661,53.063,352.631,53.063"/>
	<path clip-path="url(#SVGID_2_)" fill="#686C70" d="M17.707,4.207H4.26v58.231h41.312V51.123H17.707V4.207z M75.16,40.251h10.959
		v10.193c-2.01,0.753-5.952,1.522-9.709,1.522c-12.103,0-16.137-6.147-16.137-18.636c0-11.924,3.839-18.917,15.958-18.917
		c6.734,0,10.572,2.099,13.744,6.126l8.353-7.667c-5.091-7.31-14.023-9.538-22.395-9.538c-18.83,0-28.733,10.303-28.733,29.908
		c0,19.491,8.935,30.057,28.645,30.057c9.025,0,17.867-2.279,22.662-5.651V29.397H75.16V40.251z"/>
</g>
</svg>
