<svg id="Capa_2" data-name="Capa 2" xmlns="http://www.w3.org/2000/svg" xmlns:xlink="http://www.w3.org/1999/xlink" width="126.098" height="150.857" viewBox="0 0 126.098 150.857">
  <defs>
    <clipPath id="clip-path">
      <path id="Path_2201" data-name="Path 2201" d="M35.023,0C16.245,0,7.12,9.981,7.12,30.455v44.87c0,21.088,8.64,30.9,27.19,30.9H85.725c18.535,0,27.176-9.81,27.176-30.9V30.455C112.9,9.981,103.775,0,85,0Z" transform="translate(-7.12)" fill="none"/>
    </clipPath>
    <linearGradient id="linear-gradient" x1="-10.856" y1="4.719" x2="-10.84" y2="4.719" gradientUnits="objectBoundingBox">
      <stop offset="0" stop-color="#eaedef"/>
      <stop offset="0.07" stop-color="#eaedef"/>
      <stop offset="0.13" stop-color="#e2e7ea"/>
      <stop offset="0.22" stop-color="#cbd7dd"/>
      <stop offset="0.34" stop-color="#a7bcc7"/>
      <stop offset="0.38" stop-color="#95afbc"/>
      <stop offset="0.6" stop-color="#f2f5f7"/>
      <stop offset="0.84" stop-color="#95afbc"/>
      <stop offset="1" stop-color="#95afbc"/>
    </linearGradient>
    <clipPath id="clip-path-2">
      <path id="Path_2203" data-name="Path 2203" d="M33.75,3C17.4,3,10.11,11.07,10.11,29.178V39.472h97.268V29.178C107.378,11.07,100.093,3,83.739,3Z" transform="translate(-10.11 -3)" fill="none"/>
    </clipPath>
    <linearGradient id="linear-gradient-2" x1="-11.725" y1="13.219" x2="-11.708" y2="13.219" gradientUnits="objectBoundingBox">
      <stop offset="0" stop-color="#006442"/>
      <stop offset="0.51" stop-color="#006442"/>
      <stop offset="1" stop-color="#1fa238"/>
    </linearGradient>
    <clipPath id="clip-path-3">
      <path id="Path_2225" data-name="Path 2225" d="M38.551,22.924l-6.7,6.7H51.469c3.165,0,8.555,1.312,8.555,10.152v7.129c0,8.826-5.318,10.152-8.555,10.152H42.615V33.019H35.372V63.8H51.54c8.854,0,13.6-3.536,15.114-11.606h0a6.02,6.02,0,0,1,.128-.841c.1-.67.185-1.426.242-2.11v-.855a18.847,18.847,0,0,1,.086-2.167v-5.7a18.36,18.36,0,0,0-.086-2.167V37.5a14.473,14.473,0,0,0-.242-2.11,4.291,4.291,0,0,0-.128-.841C65.228,26.475,60.395,22.91,51.54,22.91Z" transform="translate(-31.85 -22.91)" fill="none"/>
    </clipPath>
    <linearGradient id="linear-gradient-3" x1="-33.318" y1="11.272" x2="-33.27" y2="11.272" gradientUnits="objectBoundingBox">
      <stop offset="0" stop-color="#8da5b2"/>
      <stop offset="0.16" stop-color="#8da5b2"/>
      <stop offset="0.4" stop-color="#f7f8f8"/>
      <stop offset="0.62" stop-color="#9eb2bd"/>
      <stop offset="0.64" stop-color="#a6b7c2"/>
      <stop offset="0.77" stop-color="#cad1d8"/>
      <stop offset="0.87" stop-color="#e1e0e5"/>
      <stop offset="0.93" stop-color="#e9e6ea"/>
      <stop offset="1" stop-color="#e9e6ea"/>
    </linearGradient>
    <clipPath id="clip-path-4">
      <path id="Path_2226" data-name="Path 2226" d="M78.426,48.875l6.416-1.868c-4.848,12.946-18.051,23-32.708,23a34.219,34.219,0,0,1-30.5-18.764H19.07A38.81,38.81,0,0,0,55.114,75.709c17.11,0,31.553-11.848,36.729-27.176l4.463,3.949L90.688,36.67Z" transform="translate(-19.07 -36.67)" fill="none"/>
    </clipPath>
    <linearGradient id="linear-gradient-4" x1="-15.1" y1="11.522" x2="-15.078" y2="11.522" xlink:href="#linear-gradient-3"/>
    <clipPath id="clip-path-5">
      <path id="Path_2227" data-name="Path 2227" d="M19.593,37.592,15.13,33.656l5.618,15.812,12.262-12.2-6.4,1.854c4.848-12.975,18.036-23,32.708-23a34.219,34.219,0,0,1,30.5,18.764h2.552A38.768,38.768,0,0,0,56.293,10.43c-17.11,0-31.567,11.834-36.743,27.162" transform="translate(-15.13 -10.43)" fill="none"/>
    </clipPath>
    <linearGradient id="linear-gradient-5" x1="-14.931" y1="12.251" x2="-14.909" y2="12.251" xlink:href="#linear-gradient-3"/>
  </defs>
  <g id="Layer_1" data-name="Layer 1">
    <g id="Group_699" data-name="Group 699" transform="translate(10.152)" clip-path="url(#clip-path)">
      <rect id="Rectangle_630" data-name="Rectangle 630" width="105.781" height="106.222" fill="url(#linear-gradient)"/>
    </g>
    <path id="Path_2202" data-name="Path 2202" d="M83.739,3H33.75C17.4,3,10.11,11.07,10.11,29.178V74.062c0,18.664,6.858,26.62,22.927,26.62H84.452c16.055,0,22.913-7.956,22.913-26.62V29.178C107.364,11.07,100.078,3,83.739,3" transform="translate(4.305 1.277)" fill="#006442"/>
    <g id="Group_700" data-name="Group 700" transform="translate(14.415 4.277)" clip-path="url(#clip-path-2)">
      <rect id="Rectangle_631" data-name="Rectangle 631" width="97.268" height="36.472" fill="url(#linear-gradient-2)"/>
    </g>
    <path id="Path_2204" data-name="Path 2204" d="M15.082,100.718a2.2,2.2,0,0,1,1.8.727l.157.171.884-.87-.128-.157a2.766,2.766,0,0,0-1.183-.841,4.962,4.962,0,0,0-3.18,0,3.265,3.265,0,0,0-1.269.827A3.564,3.564,0,0,0,11.375,102a6.373,6.373,0,0,0-.271,2,5.247,5.247,0,0,0,.9,3.322,3.536,3.536,0,0,0,2.852,1.169h0a6.33,6.33,0,0,0,1.583-.185,6.36,6.36,0,0,0,1.24-.4l.171-.086-.385-1.141-.214.086a10.187,10.187,0,0,1-.984.314,5.574,5.574,0,0,1-1.426.143,2.01,2.01,0,0,1-1.8-.77,3.964,3.964,0,0,1-.585-2.324,4.548,4.548,0,0,1,.613-2.566A2.182,2.182,0,0,1,15,100.746" transform="translate(4.723 42.362)" fill="#006442"/>
    <path id="Path_2205" data-name="Path 2205" d="M24.472,100.723a2.752,2.752,0,0,0-1.126-.927,3.921,3.921,0,0,0-1.668-.314,3.607,3.607,0,0,0-2.852,1.112,4.99,4.99,0,0,0-.941,3.322,9.168,9.168,0,0,0,.171,1.868,4.135,4.135,0,0,0,.6,1.426,2.937,2.937,0,0,0,1.112.927,3.921,3.921,0,0,0,1.668.314,3.636,3.636,0,0,0,2.923-1.112,5.047,5.047,0,0,0,.941-3.351,8.968,8.968,0,0,0-.171-1.839,3.778,3.778,0,0,0-.6-1.426m-.77,3.123a7.756,7.756,0,0,1-.128,1.511,2.638,2.638,0,0,1-.413,1.055,1.768,1.768,0,0,1-.727.6,2.852,2.852,0,0,1-1.2.214,1.911,1.911,0,0,1-1-.242,1.811,1.811,0,0,1-.642-.627,2.852,2.852,0,0,1-.328-1,7.329,7.329,0,0,1-.1-1.283,7.956,7.956,0,0,1,.114-1.511,2.752,2.752,0,0,1,.428-1.041,1.811,1.811,0,0,1,.727-.613,3.009,3.009,0,0,1,1.169-.214,1.939,1.939,0,0,1,1.012.242,1.668,1.668,0,0,1,.642.656,3.294,3.294,0,0,1,.342,1,8.769,8.769,0,0,1,.1,1.255" transform="translate(7.609 42.357)" fill="#006442"/>
    <path id="Path_2206" data-name="Path 2206" d="M29.731,106.685,27.55,99.713l-.057-.143H25.34v8.712h1.4v-6.616l2.1,6.473.043.143h1.682l2.01-6.587v6.587H33.98V99.57H31.856Z" transform="translate(10.79 42.397)" fill="#006442"/>
    <path id="Path_2207" data-name="Path 2207" d="M36.937,99.573H34v8.712h1.426v-3.222h1.782a3.607,3.607,0,0,0,1.14-.185,2.253,2.253,0,0,0,.9-.571,2.481,2.481,0,0,0,.57-.884,3.208,3.208,0,0,0,.2-1.2,2.538,2.538,0,0,0-.77-2,3.265,3.265,0,0,0-2.224-.656m1.583,2.652a1.611,1.611,0,0,1-.4,1.212,1.654,1.654,0,0,1-1.141.385H35.34v-2.994h1.64a2.852,2.852,0,0,1,.627.086,1.426,1.426,0,0,1,.485.257.984.984,0,0,1,.314.428,1.426,1.426,0,0,1,.114.627" transform="translate(14.477 42.395)" fill="#006442"/>
    <path id="Path_2208" data-name="Path 2208" d="M45.814,103.935a2.852,2.852,0,0,0-.143-3.764,3.479,3.479,0,0,0-2.2-.6H40.41v8.712h1.426v-3.493h1.711l1.725,3.493h1.54l-1.854-3.736a2.4,2.4,0,0,0,.884-.613m-.813-1.768a1.326,1.326,0,0,1-.356,1.069,1.782,1.782,0,0,1-1.141.314H41.807v-2.723h1.7a1.7,1.7,0,0,1,1.141.328A1.255,1.255,0,0,1,45,102.167" transform="translate(17.207 42.395)" fill="#006442"/>
    <path id="Path_2209" data-name="Path 2209" d="M48.417,104.418h3.835v-1.24H48.417v-2.353H52.4V99.57H47.02v8.712h5.5v-1.24H48.417Z" transform="translate(20.021 42.397)" fill="#006442"/>
    <path id="Path_2210" data-name="Path 2210" d="M58.612,104.628a1.74,1.74,0,0,0-.428-.428,3.737,3.737,0,0,0-.528-.342c-.2-.114-.413-.214-.627-.314l-.67-.257-.627-.242a3.079,3.079,0,0,1-.528-.228,1.269,1.269,0,0,1-.542-.456.9.9,0,0,1-.171-.57.855.855,0,0,1,.428-.77,2.338,2.338,0,0,1,1.326-.314,4.563,4.563,0,0,1,1.112.143,7.271,7.271,0,0,1,.841.314l.2.086.528-1.155-.171-.086a5.546,5.546,0,0,0-2.5-.528,4.519,4.519,0,0,0-1.2.143,2.852,2.852,0,0,0-1,.428,2.167,2.167,0,0,0-.713.727,2.467,2.467,0,0,0-.143,1.839,1.739,1.739,0,0,0,.257.6,3.137,3.137,0,0,0,.428.442,5.377,5.377,0,0,0,.556.371c.2.086.4.185.642.271l.67.285.67.257.471.214h0a1.1,1.1,0,0,1,.67,1.012.927.927,0,0,1-.4.8,2.467,2.467,0,0,1-1.426.314,5.06,5.06,0,0,1-1.084-.114,6.272,6.272,0,0,1-1.041-.385l-.2-.086-.542,1.169.185.1a6.288,6.288,0,0,0,1.3.442,6.815,6.815,0,0,0,1.426.143,4.905,4.905,0,0,0,1.226-.143,3.279,3.279,0,0,0,1.012-.456,2.224,2.224,0,0,0,.684-.77A2.182,2.182,0,0,0,58.968,106a2.524,2.524,0,0,0-.114-.784,1.968,1.968,0,0,0-.3-.6" transform="translate(22.517 42.359)" fill="#006442"/>
    <path id="Path_2211" data-name="Path 2211" d="M64.779,104.627a1.74,1.74,0,0,0-.428-.428,3.35,3.35,0,0,0-.528-.342c-.2-.114-.413-.214-.627-.314l-.67-.257-.627-.242a3.664,3.664,0,0,1-.528-.228,1.525,1.525,0,0,1-.556-.442,1.112,1.112,0,0,1-.143-.585.87.87,0,0,1,.413-.77,2.338,2.338,0,0,1,1.326-.314,4.477,4.477,0,0,1,1.112.143,8.9,8.9,0,0,1,.855.314l.2.086.528-1.155-.2-.086A5.7,5.7,0,0,0,62.4,99.48a4.591,4.591,0,0,0-1.2.143,2.752,2.752,0,0,0-1,.428,2,2,0,0,0-.7.727,2.21,2.21,0,0,0-.257,1.084,3.137,3.137,0,0,0,.086.756,2.851,2.851,0,0,0,.271.6,3.136,3.136,0,0,0,.428.442,3.579,3.579,0,0,0,.57.371l.613.271.684.285a1.789,1.789,0,0,1,.556.214h.114l.485.214h.071a1.1,1.1,0,0,1,.656,1.012.927.927,0,0,1-.4.8,2.41,2.41,0,0,1-1.426.314,5.06,5.06,0,0,1-1.084-.114,6.161,6.161,0,0,1-1.027-.385l-.2-.086-.556,1.169.185.1a6.287,6.287,0,0,0,1.3.442,6.917,6.917,0,0,0,1.426.143,4.905,4.905,0,0,0,1.226-.143,3.28,3.28,0,0,0,1.012-.456,1.968,1.968,0,0,0,.684-.77,2.167,2.167,0,0,0,.242-1.084,2.552,2.552,0,0,0-.1-.784,1.967,1.967,0,0,0-.3-.6" transform="translate(25.161 42.359)" fill="#006442"/>
    <path id="Path_2212" data-name="Path 2212" d="M71.972,100.723a2.652,2.652,0,0,0-1.126-.927,3.878,3.878,0,0,0-1.668-.314,3.621,3.621,0,0,0-2.852,1.112,4.99,4.99,0,0,0-.941,3.322,8.2,8.2,0,0,0,.185,1.868,3.664,3.664,0,0,0,.6,1.426,2.852,2.852,0,0,0,1.1.927,3.978,3.978,0,0,0,1.682.314,3.664,3.664,0,0,0,2.852-1.112,5.133,5.133,0,0,0,.941-3.351,8.912,8.912,0,0,0-.185-1.839,3.579,3.579,0,0,0-.6-1.426m-.67,3.123a7.871,7.871,0,0,1-.128,1.511,2.852,2.852,0,0,1-.4,1.055,1.825,1.825,0,0,1-.741.6,2.852,2.852,0,0,1-1.183.214,1.939,1.939,0,0,1-1.012-.242,1.768,1.768,0,0,1-.627-.627,2.851,2.851,0,0,1-.342-1,9.01,9.01,0,0,1-.1-1.283,7.871,7.871,0,0,1,.128-1.511,2.752,2.752,0,0,1,.413-1.041,1.91,1.91,0,0,1,.727-.613,3.051,3.051,0,0,1,1.169-.214,1.982,1.982,0,0,1,1.027.242,1.739,1.739,0,0,1,.627.656,2.951,2.951,0,0,1,.342,1,7.128,7.128,0,0,1,.1,1.255" transform="translate(27.835 42.357)" fill="#006442"/>
    <path id="Path_2213" data-name="Path 2213" d="M77.337,104.548a2.5,2.5,0,0,0,.9-.613,2.852,2.852,0,0,0-.143-3.764,3.493,3.493,0,0,0-2.181-.6H72.86v8.712h1.426V104.79h1.625l1.725,3.493h1.554Zm.086-2.381a1.326,1.326,0,0,1-.371,1.069,1.754,1.754,0,0,1-1.141.314h-1.64v-2.723h1.64a1.725,1.725,0,0,1,1.155.328,1.3,1.3,0,0,1,.356,1.012" transform="translate(31.024 42.395)" fill="#006442"/>
    <path id="Path_2214" data-name="Path 2214" d="M4.734,82.827a11.221,11.221,0,0,1,3.322.442,5.949,5.949,0,0,1,3.992,3.85,10.879,10.879,0,0,1,.528,3.636,9.439,9.439,0,0,1-.642,3.707,5.9,5.9,0,0,1-1.768,2.324,6.616,6.616,0,0,1-2.681,1.283,13.915,13.915,0,0,1-3.379.385H0V82.77ZM4.049,96.486a10.18,10.18,0,0,0,2.5-.285,3.992,3.992,0,0,0,1.854-.97,4.677,4.677,0,0,0,1.183-1.868,8.983,8.983,0,0,0,.4-2.852,5.8,5.8,0,0,0-1.426-4.277,5.4,5.4,0,0,0-3.907-1.34H2.467V96.543Z" transform="translate(0 35.244)" fill="#006442"/>
    <path id="Path_2215" data-name="Path 2215" d="M19.789,94.133,20,96.985H17.736l-.114-.87a3.707,3.707,0,0,1-.642.4,5.489,5.489,0,0,1-.67.271,6.3,6.3,0,0,1-1.2.342,6.6,6.6,0,0,1-1.155.114,4.862,4.862,0,0,1-1.725-.271,2.566,2.566,0,0,1-1.084-.784,2.852,2.852,0,0,1-.542-1.24,8.7,8.7,0,0,1-.157-1.7V86.12H12.9v6.673a7.685,7.685,0,0,0,0,1.027,2.267,2.267,0,0,0,.228.813,1.426,1.426,0,0,0,.542.556,2.11,2.11,0,0,0,.984.2,4.178,4.178,0,0,0,1.226-.171,3.493,3.493,0,0,0,1.012-.485l.385-.285V86.163h2.509Z" transform="translate(4.45 36.67)" fill="#006442"/>
    <path id="Path_2216" data-name="Path 2216" d="M28.625,97.1a5.591,5.591,0,0,1-.9,0,2.852,2.852,0,0,1-1.426-.271,2.01,2.01,0,0,1-.813-.841,5.232,5.232,0,0,1-1.511.9,5.461,5.461,0,0,1-3.75.128,2.609,2.609,0,0,1-1.1-.756,2.381,2.381,0,0,1-.542-1.069,4.663,4.663,0,0,1-.157-1.283,3.721,3.721,0,0,1,.342-1.711,2.666,2.666,0,0,1,.97-1.055,4.135,4.135,0,0,1,1.5-.528,13.088,13.088,0,0,1,1.925-.143H25.1v-.528a4.676,4.676,0,0,0-.114-1.084,1.554,1.554,0,0,0-.385-.727,1.511,1.511,0,0,0-.727-.4,4.277,4.277,0,0,0-1.141-.143,7.5,7.5,0,0,0-1.811.228,6.688,6.688,0,0,0-1.511.585l-.542-1.554a11.306,11.306,0,0,1,2.039-.741,9.71,9.71,0,0,1,2.509-.1,7.129,7.129,0,0,1,1.982.228,2.752,2.752,0,0,1,1.3.77,3.151,3.151,0,0,1,.7,1.426,8.954,8.954,0,0,1,.214,2.124v3.579a1.426,1.426,0,0,0,.257,1.012,1,1,0,0,0,.756.271Zm-5.447-4.891a2.5,2.5,0,0,0-1.682.428,1.583,1.583,0,0,0-.471,1.255A1.911,1.911,0,0,0,21.4,95.18a1.611,1.611,0,0,0,1.312.442,3.621,3.621,0,0,0,1.255-.271,4.477,4.477,0,0,0,1.2-.7v-2.31a6.3,6.3,0,0,0-1-.114h-.984" transform="translate(7.847 36.608)" fill="#006442"/>
    <path id="Path_2217" data-name="Path 2217" d="M30.371,98.728h-.228a.171.171,0,0,1-.128,0h-.356a3.835,3.835,0,0,1-1.426-.214,2.153,2.153,0,0,1-.9-.613,2.3,2.3,0,0,1-.471-1.012,5.8,5.8,0,0,1-.143-1.426v-12.9l2.41-.3V95.52a3.835,3.835,0,0,0,0,.784.984.984,0,0,0,.214.442.727.727,0,0,0,.371.214,2.852,2.852,0,0,0,.542,0Z" transform="translate(11.377 35.027)" fill="#006442"/>
    <rect id="Rectangle_632" data-name="Rectangle 632" width="2.481" height="15.613" transform="translate(49.889 118.071)" fill="#006442"/>
    <path id="Path_2218" data-name="Path 2218" d="M41.013,86.214l.086.87a3.594,3.594,0,0,1,.627-.4l.727-.3A7.129,7.129,0,0,1,44.805,86a5.176,5.176,0,0,1,1.768.271,2.552,2.552,0,0,1,1.084.77A2.851,2.851,0,0,1,48.2,88.3a8.555,8.555,0,0,1,.157,1.682v7.129H45.918V90.463a5.8,5.8,0,0,0-.071-1.027,2.253,2.253,0,0,0-.257-.827,1.426,1.426,0,0,0-.556-.542,2.1,2.1,0,0,0-.97-.185,4.378,4.378,0,0,0-1.255.171,3.822,3.822,0,0,0-1,.485l-.442.285v8.255H38.96v-7.97l-.2-2.852Z" transform="translate(16.504 36.619)" fill="#006442"/>
    <path id="Path_2219" data-name="Path 2219" d="M51.908,95.285l2.766-9.125h2.509L53.348,97.01H50.111L46.39,86.16h2.581l2.695,9.125Z" transform="translate(19.753 36.687)" fill="#006442"/>
    <path id="Path_2220" data-name="Path 2220" d="M59.813,97.42a7.371,7.371,0,0,1-2.5-.371,3.565,3.565,0,0,1-1.611-1.069,4.278,4.278,0,0,1-.87-1.8,10.879,10.879,0,0,1-.257-2.509c0-3.75,1.711-5.7,5.161-5.7a5.575,5.575,0,0,1,2.3.4,3.322,3.322,0,0,1,1.426,1.112,4.277,4.277,0,0,1,.7,1.682,11.193,11.193,0,0,1,.2,2.124v.97H57.075a4.121,4.121,0,0,0,.6,2.31,2.966,2.966,0,0,0,2.509.927,5.888,5.888,0,0,0,2.025-.3c.542-.2,1.027-.4,1.426-.585l.513,1.554a4.75,4.75,0,0,1-.77.4,9.4,9.4,0,0,1-1.069.356,9.98,9.98,0,0,1-1.24.271,9.7,9.7,0,0,1-1.269.1m2-6.758a3.921,3.921,0,0,0-.513-2.267,1.839,1.839,0,0,0-1.6-.684,2.438,2.438,0,0,0-1.768.542,2.766,2.766,0,0,0-.741,1.682l-.1.727Z" transform="translate(23.24 36.605)" fill="#006442"/>
    <path id="Path_2221" data-name="Path 2221" d="M65.057,86.214l.143,1.312a3.166,3.166,0,0,1,1.183-.955,4.377,4.377,0,0,1,2.2-.57,3.936,3.936,0,0,1,.955.1,4.277,4.277,0,0,1,.713.214l-.6,2A2.852,2.852,0,0,0,68.308,88a3.065,3.065,0,0,0-1.739.541,4.948,4.948,0,0,0-.528.371q-.257.214-.513.471v7.742H63.089v-7.87l-.3-3.037Z" transform="translate(26.736 36.619)" fill="#006442"/>
    <path id="Path_2222" data-name="Path 2222" d="M72.466,88.774v5.9a1.811,1.811,0,0,0,.228.77,1.155,1.155,0,0,0,.528.513,2.139,2.139,0,0,0,.955.185,4.833,4.833,0,0,0,1.112-.128,4.42,4.42,0,0,0,.955-.342l.428,1.654a7.643,7.643,0,0,1-3.265.713,4.776,4.776,0,0,1-1.711-.271A2.381,2.381,0,0,1,70.669,97a2.852,2.852,0,0,1-.528-1.183,8.341,8.341,0,0,1-.128-1.526V88.774H68.16V87.163l1.825-.214V84.768l2.438-.428v2.581h3.892v1.854Z" transform="translate(29.023 35.912)" fill="#006442"/>
    <path id="Path_2223" data-name="Path 2223" d="M80.233,97.442a7.215,7.215,0,0,1-2.481-.371A3.607,3.607,0,0,1,76.127,96a4.42,4.42,0,0,1-.884-1.8A11.791,11.791,0,0,1,75,91.624q0-5.618,5.161-5.7a5.575,5.575,0,0,1,2.3.4,3.322,3.322,0,0,1,1.426,1.112,4.278,4.278,0,0,1,.7,1.682,11.194,11.194,0,0,1,.2,2.124v.97H77.5a4.12,4.12,0,0,0,.6,2.381,2.994,2.994,0,0,0,2.509.927,5.832,5.832,0,0,0,2.025-.3c.542-.2,1.012-.4,1.426-.585l.528,1.554a4.4,4.4,0,0,1-.784.4,8.3,8.3,0,0,1-1.055.356,9.98,9.98,0,0,1-1.24.271,9.7,9.7,0,0,1-1.269.1m2-6.758a3.921,3.921,0,0,0-.513-2.267,1.839,1.839,0,0,0-1.6-.684,2.438,2.438,0,0,0-1.768.542,2.851,2.851,0,0,0-.756,1.682l-.086.727Z" transform="translate(31.935 36.584)" fill="#006442"/>
    <path id="Path_2224" data-name="Path 2224" d="M85.469,86.214l.143,1.312a3.279,3.279,0,0,1,1.183-.955,4.377,4.377,0,0,1,2.2-.57,3.934,3.934,0,0,1,.955.1,4.275,4.275,0,0,1,.713.214l-.627,1.953a2.852,2.852,0,0,0-1.34-.314,3.065,3.065,0,0,0-1.739.541,3.819,3.819,0,0,0-.528.371q-.257.214-.513.471v7.742H83.529V89.251l-.3-3.037Z" transform="translate(35.44 36.619)" fill="#006442"/>
    <g id="Group_701" data-name="Group 701" transform="translate(45.412 32.665)" clip-path="url(#clip-path-3)">
      <rect id="Rectangle_633" data-name="Rectangle 633" width="35.331" height="40.892" transform="translate(0 0.014)" fill="url(#linear-gradient-3)"/>
    </g>
    <g id="Group_702" data-name="Group 702" transform="translate(27.19 52.284)" clip-path="url(#clip-path-4)">
      <rect id="Rectangle_634" data-name="Rectangle 634" width="77.222" height="39.039" transform="translate(0)" fill="url(#linear-gradient-4)"/>
    </g>
    <g id="Group_703" data-name="Group 703" transform="translate(21.572 14.871)" clip-path="url(#clip-path-5)">
      <rect id="Rectangle_635" data-name="Rectangle 635" width="77.222" height="39.039" transform="translate(0 0)" fill="url(#linear-gradient-5)"/>
    </g>
  </g>
</svg>
