<svg xmlns="http://www.w3.org/2000/svg" width="41" height="41" viewBox="0 0 41 41">
  <g id="Group_696" data-name="Group 696" transform="translate(-378 -744.843)">
    <rect id="Rectangle_28" data-name="Rectangle 28" width="41" height="41" rx="10" transform="translate(378 744.843)" fill="#6b6b6b"/>
    <g id="wifi" transform="translate(381 752.93)">
      <path id="Path_1490" data-name="Path 1490" d="M34.2,49.389a23.993,23.993,0,0,0-33.931,0,.931.931,0,0,0,1.317,1.317,22.129,22.129,0,0,1,31.3,0A.931.931,0,1,0,34.2,49.389Z" transform="translate(-0.001 -42.362)" fill="#fff"/>
      <path id="Path_1491" data-name="Path 1491" d="M45.02,86.829A18.693,18.693,0,0,0,31.715,92.34a.931.931,0,1,0,1.317,1.317,16.954,16.954,0,0,1,23.976,0,.931.931,0,1,0,1.317-1.317A18.693,18.693,0,0,0,45.02,86.829Z" transform="translate(-27.782 -81.652)" fill="#fff"/>
      <path id="Path_1492" data-name="Path 1492" d="M72.246,130.407a13.654,13.654,0,0,0-9.718,4.025.931.931,0,0,0,1.317,1.317,11.88,11.88,0,0,1,16.8,0,.931.931,0,0,0,1.317-1.317A13.652,13.652,0,0,0,72.246,130.407Z" transform="translate(-55.008 -120.157)" fill="#fff"/>
      <path id="Path_1493" data-name="Path 1493" d="M99.751,174.428a8.562,8.562,0,0,0-6.094,2.525.931.931,0,0,0,1.317,1.317,6.755,6.755,0,0,1,9.554,0,.931.931,0,0,0,1.317-1.317A8.561,8.561,0,0,0,99.751,174.428Z" transform="translate(-82.513 -159.054)" fill="#fff"/>
      <path id="Path_1494" data-name="Path 1494" d="M133.939,221.79a1.863,1.863,0,1,0,1.317.546A1.857,1.857,0,0,0,133.939,221.79Z" transform="translate(-116.701 -200.902)" fill="#fff"/>
    </g>
  </g>
</svg>
