<svg xmlns="http://www.w3.org/2000/svg" width="41" height="41" viewBox="0 0 41 41">
  <g id="Group_698" data-name="Group 698" transform="translate(-1472.587 -721.821)">
    <rect id="Rectangle_30" data-name="Rectangle 30" width="41" height="41" rx="10" transform="translate(1472.587 721.821)" fill="#62a60a"/>
    <g id="ok" transform="translate(1481.304 725.139)">
      <g id="Group_10" data-name="Group 10" transform="translate(0 0)">
        <path id="Path_1479" data-name="Path 1479" d="M117.911,23.855v-5.11q0-.02,0-.04l-.467-7.969c-.128-2.189-1.338-2.516-2.047-2.516a2.676,2.676,0,0,0-1.4.4l-.519-3.884c-.254-1.9-1.438-2.43-2.374-2.305a3.3,3.3,0,0,0-2.444,2.188l-.781-2.614A2.562,2.562,0,0,0,106.04.059a2.619,2.619,0,0,0-2.47.829,3.35,3.35,0,0,0-.7,3.309l2.181,7.258c-1.261-.271-2.367.321-3.671,1.377a27.719,27.719,0,0,1-4.308,2.653,1.512,1.512,0,0,0-.771,1.624,2.506,2.506,0,0,0,.626,1.334,2.391,2.391,0,0,0-.643.632,1.451,1.451,0,0,0-.058,1.667c.1.142.208.281.327.429a8.085,8.085,0,0,1,1.413,2.492,7.069,7.069,0,0,0,2.982,3.513c.955.666,1.632,1.139,1.813,2.295a.685.685,0,0,0-.57.675v4.239a.685.685,0,0,0,.685.685h13.778a.685.685,0,0,0,.685-.685V30.146a.685.685,0,0,0-.579-.676,15.129,15.129,0,0,1,.528-2.282,12.282,12.282,0,0,0,.623-3.333ZM115.97,33.7H103.562V30.83h3.121a.685.685,0,0,0,0-1.37h-2.54a4.521,4.521,0,0,0-2.41-3.408,5.752,5.752,0,0,1-2.483-2.87,9.423,9.423,0,0,0-1.626-2.867c-.1-.13-.194-.243-.262-.341a.59.59,0,0,1,.223-.315,1.536,1.536,0,0,1,1.3-.319,2.422,2.422,0,0,1,1.727,1.2,5.331,5.331,0,0,0,1.972,1.778,2.9,2.9,0,0,0,2.13.494,4.663,4.663,0,0,0,2.077-1.71,2.054,2.054,0,0,0,.24-2.47,8.645,8.645,0,0,0-1.767-1.988c-1.219-1.123-2.524-.342-3.572.285a4.383,4.383,0,0,1-3.164.925,1.115,1.115,0,0,1-.807-.7.636.636,0,0,1-.039-.446,28.665,28.665,0,0,0,4.564-2.817c1.721-1.393,2.416-1.378,3.512-.639a3.074,3.074,0,0,0,.817.377,1.864,1.864,0,0,1,.867.513.685.685,0,1,0,.953-.984,3.2,3.2,0,0,0-1.39-.83,3.026,3.026,0,0,1-.287-.105L104.183,3.8a1.952,1.952,0,0,1,.383-1.975,1.255,1.255,0,0,1,1.157-.436,1.337,1.337,0,0,1,.839,1.008l2.764,9.254a3.988,3.988,0,0,0,.763,1.389,3.188,3.188,0,0,1,.792,1.878.685.685,0,0,0,.681.62c.022,0,.044,0,.066,0a.685.685,0,0,0,.617-.747,4.535,4.535,0,0,0-1.064-2.575,2.717,2.717,0,0,1-.536-.933l0-.014-.346-1.157-.5-3.754a2.267,2.267,0,0,1,1.487-2.565c.556-.074.76.573.835,1.129l1.624,12.149a.685.685,0,1,0,1.358-.181l-.842-6.3a.722.722,0,0,1,.191-.574,1.284,1.284,0,0,1,.949-.424c.2,0,.608,0,.68,1.226l.466,7.949v5.089a11.1,11.1,0,0,1-.571,2.958,15.387,15.387,0,0,0-.587,2.648h-2.535a.685.685,0,0,0,0,1.37h3.122ZM100.977,18.867a11.985,11.985,0,0,0,1.417-.76c1.16-.694,1.533-.829,1.941-.453,1.707,1.573,1.853,2.04,1.409,2.567a4.357,4.357,0,0,1-1.385,1.27c-.227.061-.548-.076-1.14-.385a3.989,3.989,0,0,1-1.5-1.376,5.507,5.507,0,0,0-.737-.863Z" transform="translate(-95.991 0)" fill="#fff"/>
        <path id="Path_1480" data-name="Path 1480" d="M287.768,430.1h0a.685.685,0,1,0,.686.685A.685.685,0,0,0,287.768,430.1Z" transform="translate(-273.994 -400.643)" fill="#fff"/>
      </g>
    </g>
  </g>
</svg>
