<svg xmlns="http://www.w3.org/2000/svg" width="41" height="41" viewBox="0 0 41 41">
  <g id="Group_705" data-name="Group 705" transform="translate(-1167.797 -105.292)">
    <rect id="Rectangle_629" data-name="Rectangle 629" width="41" height="41" rx="10" transform="translate(1167.797 105.292)" fill="#a50034"/>
    <g id="dormir" transform="translate(1174.886 112.379)">
      <path id="Path_2195" data-name="Path 2195" d="M24.292,24.419a11.868,11.868,0,0,1-13-17.334.774.774,0,0,0-.846-1.131A13.417,13.417,0,0,0,0,19.037,13.413,13.413,0,0,0,25.138,25.55a.774.774,0,0,0-.847-1.131ZM13.412,30.9A11.865,11.865,0,0,1,9.177,7.953,13.414,13.414,0,0,0,21.666,26.259q.6,0,1.2-.054A11.881,11.881,0,0,1,13.412,30.9Zm0,0" transform="translate(0 -5.625)" fill="#fff"/>
      <path id="Path_2196" data-name="Path 2196" d="M261.7,124.626h3.29l-3.837,3.837a.774.774,0,0,0,.547,1.321h5.159a.774.774,0,1,0,0-1.548h-3.29L267.4,124.4a.774.774,0,0,0-.547-1.321H261.7a.774.774,0,1,0,0,1.548Zm0,0" transform="translate(-247.252 -116.63)" fill="#fff"/>
      <path id="Path_2197" data-name="Path 2197" d="M399.543,1.548h2.517L399,4.611a.774.774,0,0,0,.547,1.321h4.385a.774.774,0,0,0,0-1.548h-2.517l3.064-3.064A.774.774,0,0,0,403.928,0h-4.385a.774.774,0,1,0,0,1.548Zm0,0" transform="translate(-377.878)" fill="#fff"/>
      <path id="Path_2198" data-name="Path 2198" d="M432.619,162.939a.774.774,0,0,0-.708-.462h-2.838a.774.774,0,1,0,0,1.548h1.078l-1.649,1.8a.774.774,0,0,0,.57,1.3h2.769a.774.774,0,0,0,0-1.548h-1.01l1.649-1.8A.774.774,0,0,0,432.619,162.939Zm0,0" transform="translate(-405.86 -153.964)" fill="#fff"/>
      <path id="Path_2199" data-name="Path 2199" d="M204.685,381.141a1.291,1.291,0,0,1-1.29-1.29.774.774,0,1,0-1.547,0,2.84,2.84,0,0,0,2.837,2.837.774.774,0,1,0,0-1.548Zm0,0" transform="translate(-191.273 -359.218)" fill="#fff"/>
      <path id="Path_2200" data-name="Path 2200" d="M66.837,282.681a1.291,1.291,0,0,1-1.29-1.29.774.774,0,0,0-1.548,0,2.84,2.84,0,0,0,2.837,2.837.774.774,0,1,0,0-1.548Zm0,0" transform="translate(-60.647 -265.915)" fill="#fff"/>
    </g>
  </g>
</svg>
