<svg xmlns="http://www.w3.org/2000/svg" width="41" height="41" viewBox="0 0 41 41">
  <g id="Group_706" data-name="Group 706" transform="translate(-987.6 -105.292)">
    <rect id="Rectangle_30" data-name="Rectangle 30" width="41" height="41" rx="10" transform="translate(987.6 105.292)" fill="#406c08"/>
    <g id="reciclar" transform="translate(993.024 110.713)">
      <path id="Path_2192" data-name="Path 2192" d="M29.51,5.695A15.074,15.074,0,0,0,8.8,2.926L7.471,1.26a.589.589,0,0,0-1,.137L2.851,9.934a.589.589,0,0,0,.644.81l9.132-1.607a.589.589,0,0,0,.359-.947L11.677,6.545A10.447,10.447,0,0,1,21.861,5.482.589.589,0,1,0,22.327,4.4,11.623,11.623,0,0,0,10.473,5.978a.589.589,0,0,0-.094.827l1.069,1.343L4.358,9.4,7.166,2.768,8.235,4.111a.589.589,0,0,0,.827.094,13.9,13.9,0,0,1,22.5,12.065l-2.324.409a11.591,11.591,0,0,0-2.418-8.842.589.589,0,0,0-.922.733,10.424,10.424,0,0,1,2.038,8.711.589.589,0,0,0,.576.712c.034,0,3.693-.641,3.693-.641a.589.589,0,0,0,.483-.511A14.967,14.967,0,0,0,29.51,5.695Z" transform="translate(-2.639 0)" fill="#fff"/>
      <path id="Path_2193" data-name="Path 2193" d="M29.3,201.144l-9.132,1.606a.589.589,0,0,0-.359.946l1.309,1.646a10.4,10.4,0,0,1-5.449,1.9V199.5a7.448,7.448,0,0,0,1.791.225,6.049,6.049,0,0,0,3.05-.792,6.67,6.67,0,0,0,3.1-4.7.589.589,0,0,0-.383-.663,6.669,6.669,0,0,0-5.624.33,6.185,6.185,0,0,0-2.52,2.848,6.185,6.185,0,0,0-2.52-2.848,6.669,6.669,0,0,0-5.624-.33.589.589,0,0,0-.383.663,6.67,6.67,0,0,0,3.1,4.7,6.049,6.049,0,0,0,3.05.792,7.449,7.449,0,0,0,1.791-.225v7.739a10.444,10.444,0,0,1-9.63-12.633.589.589,0,0,0-.678-.7l-3.59.631a.589.589,0,0,0-.483.511,15.071,15.071,0,0,0,13.264,16.741,15.308,15.308,0,0,0,1.735.1,14.946,14.946,0,0,0,8.888-2.922l1.326,1.666a.589.589,0,0,0,1-.137l3.617-8.537a.589.589,0,0,0-.644-.81Zm-11.11-6.228a5.352,5.352,0,0,1,4.148-.395,5.352,5.352,0,0,1-2.416,3.393,5.354,5.354,0,0,1-4.148.4A5.352,5.352,0,0,1,18.185,194.916Zm-7.949,3a5.352,5.352,0,0,1-2.416-3.393,5.352,5.352,0,0,1,4.148.395,5.352,5.352,0,0,1,2.417,3.394A5.354,5.354,0,0,1,10.236,197.914ZM25.624,209.12l-1.069-1.343a.589.589,0,0,0-.827-.094,13.9,13.9,0,0,1-22.5-12.067l2.324-.408a11.635,11.635,0,0,0,18.762,10.7.589.589,0,0,0,.094-.827l-1.07-1.345,7.09-1.247Z" transform="translate(0 -181.73)" fill="#fff"/>
      <path id="Path_2194" data-name="Path 2194" d="M360.309,98.044a.59.59,0,1,0-.417-.174l0,0A.585.585,0,0,0,360.309,98.044Z" transform="translate(-338.536 -91.157)" fill="#fff"/>
    </g>
  </g>
</svg>
