<svg xmlns="http://www.w3.org/2000/svg" width="41" height="41" viewBox="0 0 41 41">
  <g id="Group_694" data-name="Group 694" transform="translate(-466.61 -243.072)">
    <g id="Group_507" data-name="Group 507" transform="translate(466.61 243.072)">
      <rect id="Rectangle_29" data-name="Rectangle 29" width="41" height="41" rx="6" fill="#0b8efd"/>
    </g>
    <g id="low_temperature" data-name="low temperature" transform="translate(473.609 248.572)">
      <path id="Path_1475" data-name="Path 1475" d="M19.786,21.706V5.605a3.605,3.605,0,1,0-7.211,0v16.1a6.181,6.181,0,1,0,7.211,0ZM16.18,31.873a5.15,5.15,0,0,1-2.809-9.464.515.515,0,0,0,.233-.432V5.605a2.575,2.575,0,0,1,5.15,0V21.977a.515.515,0,0,0,.233.432,5.15,5.15,0,0,1-2.809,9.464Z" transform="translate(-9.999 -2)" fill="#fff"/>
      <path id="Path_1476" data-name="Path 1476" d="M20.366,25.211l-.7-.457V7.545a1.545,1.545,0,1,0-3.09,0V24.754l-.7.457a4.12,4.12,0,1,0,4.491,0ZM18.12,31.752a3.09,3.09,0,0,1-1.683-5.678l.934-.61a.515.515,0,0,0,.233-.432V7.545a.515.515,0,0,1,1.03,0V25.033a.515.515,0,0,0,.233.432l.934.61a3.09,3.09,0,0,1-1.683,5.678Z" transform="translate(-11.939 -3.94)" fill="#fff"/>
      <path id="Path_1477" data-name="Path 1477" d="M39.726,2a7.726,7.726,0,1,0,7.726,7.726A7.726,7.726,0,0,0,39.726,2Zm0,14.421a6.7,6.7,0,1,1,6.7-6.7,6.7,6.7,0,0,1-6.7,6.7Z" transform="translate(-20.669 -2)" fill="#fff"/>
      <path id="Path_1478" data-name="Path 1478" d="M46.726,11.666H45.181V6.515A.515.515,0,0,0,44.666,6h-3.09a.515.515,0,0,0-.515.515v5.15H39.515a.515.515,0,0,0-.388.854l3.605,4.12a.515.515,0,0,0,.776,0l3.605-4.12a.515.515,0,0,0-.388-.854ZM43.12,15.519,40.648,12.7h.927a.515.515,0,0,0,.515-.515V7.03h2.06v5.15a.515.515,0,0,0,.515.515h.927Z" transform="translate(-24.063 -3.94)" fill="#fff"/>
    </g>
  </g>
</svg>
