<svg xmlns="http://www.w3.org/2000/svg" width="41" height="41" viewBox="0 0 41 41">
  <g id="Group_695" data-name="Group 695" transform="translate(-435.5 -264.562)">
    <rect id="Rectangle_27" data-name="Rectangle 27" width="41" height="41" rx="10" transform="translate(435.5 264.562)" fill="#f38a00"/>
    <g id="rayo" transform="translate(438.142 266.881)">
      <path id="Path_1481" data-name="Path 1481" d="M12.257,4.543a.757.757,0,0,1-.757-.757V.757a.757.757,0,1,1,1.514,0V3.786A.757.757,0,0,1,12.257,4.543Z" transform="translate(5.915)" fill="#fff"/>
      <path id="Path_1482" data-name="Path 1482" d="M18.975,7.023a.756.756,0,0,1-.536-1.292L20.581,3.59a.757.757,0,0,1,1.071,1.071L19.51,6.8A.754.754,0,0,1,18.975,7.023Z" transform="translate(9.371 1.733)" fill="#fff"/>
      <path id="Path_1483" data-name="Path 1483" d="M24.786,13.014H21.757a.757.757,0,0,1,0-1.514h3.029a.757.757,0,1,1,0,1.514Z" transform="translate(10.802 5.915)" fill="#fff"/>
      <path id="Path_1484" data-name="Path 1484" d="M21.117,21.873a.761.761,0,0,1-.536-.221l-2.141-2.141A.757.757,0,0,1,19.51,18.44l2.141,2.141a.756.756,0,0,1-.535,1.292Z" transform="translate(9.371 9.371)" fill="#fff"/>
      <path id="Path_1485" data-name="Path 1485" d="M12.257,25.543a.757.757,0,0,1-.757-.757V21.757a.757.757,0,0,1,1.514,0v3.029A.757.757,0,0,1,12.257,25.543Z" transform="translate(5.915 10.802)" fill="#fff"/>
      <path id="Path_1486" data-name="Path 1486" d="M4.125,21.873a.756.756,0,0,1-.536-1.292L5.731,18.44A.757.757,0,1,1,6.8,19.511L4.66,21.652A.754.754,0,0,1,4.125,21.873Z" transform="translate(1.732 9.371)" fill="#fff"/>
      <path id="Path_1487" data-name="Path 1487" d="M3.786,13.014H.757a.757.757,0,1,1,0-1.514H3.786a.757.757,0,1,1,0,1.514Z" transform="translate(0 5.915)" fill="#fff"/>
      <path id="Path_1488" data-name="Path 1488" d="M6.266,7.023A.761.761,0,0,1,5.73,6.8L3.59,4.661A.757.757,0,0,1,4.661,3.59L6.8,5.732a.756.756,0,0,1-.536,1.292Z" transform="translate(1.733 1.733)" fill="#fff"/>
      <path id="Path_1489" data-name="Path 1489" d="M12.411,28.231a.771.771,0,0,1-.265-.047.757.757,0,0,1-.486-.809l1.292-9.745H7.757a.757.757,0,0,1-.606-1.212L16.238,4.3a.758.758,0,0,1,1.354.578l-1.369,8.2h5.164a.756.756,0,0,1,.666.4.764.764,0,0,1-.033.777L13.044,27.892a.761.761,0,0,1-.633.339ZM9.272,16.116h4.543a.759.759,0,0,1,.751.857L13.6,24.3l6.386-9.7H15.329a.756.756,0,0,1-.747-.881l1-6.024Z" transform="translate(3.601 2.057)" fill="#fff"/>
    </g>
  </g>
</svg>
