<svg xmlns="http://www.w3.org/2000/svg" width="33.482" height="33.482" viewBox="0 0 33.482 33.482">
  <path id="Icon_simple-instagram" data-name="Icon simple-instagram" d="M16.741,0c-4.548,0-5.116.021-6.9.1A12.344,12.344,0,0,0,5.776.879,8.2,8.2,0,0,0,2.81,2.81,8.168,8.168,0,0,0,.879,5.776,12.309,12.309,0,0,0,.1,9.84c-.084,1.786-.1,2.354-.1,6.9s.021,5.116.1,6.9a12.352,12.352,0,0,0,.778,4.064A8.21,8.21,0,0,0,2.81,30.672,8.186,8.186,0,0,0,5.776,32.6a12.36,12.36,0,0,0,4.064.778c1.786.084,2.354.1,6.9.1s5.116-.021,6.9-.1a12.388,12.388,0,0,0,4.064-.778,8.556,8.556,0,0,0,4.9-4.9,12.352,12.352,0,0,0,.778-4.064c.084-1.786.1-2.354.1-6.9s-.021-5.116-.1-6.9A12.381,12.381,0,0,0,32.6,5.776,8.217,8.217,0,0,0,30.672,2.81,8.157,8.157,0,0,0,27.706.879,12.316,12.316,0,0,0,23.642.1C21.857.017,21.289,0,16.741,0Zm0,3.013c4.468,0,5,.022,6.766.1a9.224,9.224,0,0,1,3.107.579,5.509,5.509,0,0,1,3.178,3.177,9.243,9.243,0,0,1,.576,3.107c.08,1.766.1,2.3.1,6.766s-.021,5-.1,6.766a9.421,9.421,0,0,1-.587,3.107,5.316,5.316,0,0,1-1.254,1.928,5.223,5.223,0,0,1-1.925,1.25,9.311,9.311,0,0,1-3.118.576c-1.777.08-2.3.1-6.779.1s-5-.021-6.779-.1A9.493,9.493,0,0,1,6.8,29.775a5.184,5.184,0,0,1-1.924-1.254A5.083,5.083,0,0,1,3.622,26.6a9.5,9.5,0,0,1-.586-3.118c-.063-1.758-.085-2.3-.085-6.758s.022-5,.085-6.782a9.49,9.49,0,0,1,.586-3.117A4.963,4.963,0,0,1,4.877,4.9,4.952,4.952,0,0,1,6.8,3.643a9.266,9.266,0,0,1,3.1-.587c1.779-.063,2.3-.084,6.779-.084l.063.042Zm0,5.131a8.6,8.6,0,1,0,8.6,8.6A8.6,8.6,0,0,0,16.741,8.145Zm0,14.177a5.58,5.58,0,1,1,5.58-5.58A5.579,5.579,0,0,1,16.741,22.321ZM27.687,7.806A2.009,2.009,0,1,1,25.678,5.8,2.01,2.01,0,0,1,27.687,7.806Z" fill="#a50034"/>
</svg>
