<?xml version="1.0" encoding="utf-8"?>
<!-- Generator: Adobe Illustrator 16.0.0, SVG Export Plug-In . SVG Version: 6.00 Build 0)  -->
<!DOCTYPE svg PUBLIC "-//W3C//DTD SVG 1.1//EN" "http://www.w3.org/Graphics/SVG/1.1/DTD/svg11.dtd">
<svg version="1.1" id="Capa_1" xmlns="http://www.w3.org/2000/svg" xmlns:xlink="http://www.w3.org/1999/xlink" x="0px" y="0px"
	 width="678.067px" height="159.016px" viewBox="0 0 678.067 159.016" enable-background="new 0 0 678.067 159.016"
	 xml:space="preserve">
<polygon fill="#040700" points="216.336,43.774 228.062,43.774 228.062,68.614 254.205,68.614 254.205,43.774 265.929,43.774 
	265.929,105.961 254.205,105.961 254.205,79.731 228.062,79.731 228.062,105.961 216.336,105.961 "/>
<g>
	<defs>
		<rect id="SVGID_1_" x="-613.785" y="-467.813" width="1920" height="1080"/>
	</defs>
	<clipPath id="SVGID_2_">
		<use xlink:href="#SVGID_1_"  overflow="visible"/>
	</clipPath>
	<path clip-path="url(#SVGID_2_)" fill="#040700" d="M285.296,104.311c-3.532-2.025-6.297-4.82-8.295-8.381
		c-1.997-3.561-2.996-7.57-2.996-12.029c0-4.227,0.984-8.149,2.953-11.769c1.968-3.618,4.69-6.499,8.164-8.641
		s7.353-3.214,11.639-3.214c4.573,0,8.511,0.985,11.811,2.953c3.301,1.969,5.804,4.661,7.513,8.077
		c1.707,3.417,2.562,7.209,2.562,11.378c0,1.333-0.087,2.605-0.26,3.821h-33.265c0.578,3.533,1.983,6.21,4.212,8.034
		c2.229,1.823,4.908,2.735,8.035,2.735c2.605,0,4.848-0.564,6.731-1.693c1.88-1.129,3.372-2.648,4.472-4.56l9.207,4.517
		c-4.516,7.875-11.378,11.812-20.584,11.812C292.794,107.351,288.827,106.337,285.296,104.311 M307.704,78.429
		c-0.117-1.39-0.623-2.765-1.52-4.126c-0.898-1.359-2.143-2.488-3.735-3.387c-1.593-0.897-3.46-1.346-5.602-1.346
		c-2.722,0-5.052,0.796-6.991,2.388c-1.941,1.593-3.344,3.749-4.213,6.471H307.704z"/>
	<polygon clip-path="url(#SVGID_2_)" fill="#040700" points="338.188,103.877 319.516,61.666 332.457,61.666 343.92,89.198 
		344.615,89.198 355.646,61.666 368.326,61.666 340.967,124.721 328.721,124.721 	"/>
	<path clip-path="url(#SVGID_2_)" fill="#040700" d="M403.631,103.139c-5.008-2.809-8.988-6.687-11.941-11.639
		c-2.953-4.951-4.43-10.494-4.43-16.632s1.477-11.683,4.43-16.632c2.953-4.951,6.934-8.829,11.941-11.639
		c5.008-2.807,10.495-4.212,16.459-4.212c4.864,0,9.307,0.855,13.332,2.562c4.023,1.709,7.482,4.126,10.379,7.253l-8.077,7.903
		c-2.085-2.2-4.386-3.85-6.906-4.95c-2.517-1.1-5.456-1.651-8.813-1.651c-3.822,0-7.326,0.884-10.51,2.649
		c-3.186,1.767-5.719,4.286-7.6,7.556c-1.883,3.272-2.822,6.992-2.822,11.162c0,4.169,0.955,7.89,2.865,11.16
		c1.911,3.272,4.473,5.79,7.688,7.556c3.213,1.768,6.73,2.649,10.553,2.649c5.789,0,10.537-1.707,14.243-5.124
		c1.157-1.043,2.171-2.373,3.04-3.996c0.868-1.619,1.505-3.387,1.91-5.297H419.83v-9.989h30.484
		c0.404,1.622,0.608,3.446,0.608,5.472c0,4.112-0.623,7.933-1.867,11.464c-1.246,3.533-3.142,6.631-5.688,9.293
		c-2.779,3.012-6.139,5.313-10.075,6.905c-3.938,1.593-8.338,2.389-13.202,2.389C414.126,107.351,408.639,105.947,403.631,103.139"
		/>
	<path clip-path="url(#SVGID_2_)" fill="#040700" d="M466.903,104.268c-3.591-2.055-6.384-4.864-8.382-8.426
		c-1.997-3.561-2.996-7.568-2.996-12.028c0-4.399,0.999-8.396,2.996-11.986c1.998-3.589,4.791-6.412,8.382-8.467
		c3.589-2.055,7.671-3.084,12.246-3.084c4.517,0,8.569,1.029,12.159,3.084c3.59,2.055,6.384,4.878,8.381,8.467
		c1.998,3.591,2.997,7.587,2.997,11.986c0,4.46-0.999,8.468-2.997,12.028c-1.997,3.562-4.791,6.371-8.381,8.426
		s-7.643,3.083-12.159,3.083C474.574,107.351,470.492,106.322,466.903,104.268 M485.229,95.277c1.854-1.041,3.33-2.547,4.43-4.516
		c1.1-1.968,1.65-4.284,1.65-6.948c0-2.605-0.551-4.892-1.65-6.861c-1.1-1.968-2.576-3.474-4.43-4.516
		c-1.854-1.043-3.879-1.564-6.079-1.564c-2.201,0-4.228,0.521-6.079,1.564c-1.854,1.042-3.344,2.548-4.473,4.516
		c-1.13,1.97-1.694,4.256-1.694,6.861s0.564,4.907,1.694,6.905c1.129,1.996,2.619,3.518,4.473,4.559
		c1.852,1.043,3.878,1.564,6.079,1.564C481.35,96.842,483.375,96.32,485.229,95.277"/>
	<path clip-path="url(#SVGID_2_)" fill="#040700" d="M518.146,104.268c-3.591-2.055-6.384-4.864-8.382-8.426
		c-1.997-3.561-2.996-7.568-2.996-12.028c0-4.399,0.999-8.396,2.996-11.986c1.998-3.589,4.791-6.412,8.382-8.467
		c3.589-2.055,7.671-3.084,12.247-3.084c4.516,0,8.568,1.029,12.158,3.084c3.59,2.055,6.385,4.878,8.381,8.467
		c1.998,3.591,2.998,7.587,2.998,11.986c0,4.46-1,8.468-2.998,12.028c-1.996,3.562-4.791,6.371-8.381,8.426
		s-7.643,3.083-12.158,3.083C525.816,107.351,521.734,106.322,518.146,104.268 M536.471,95.277c1.854-1.041,3.33-2.547,4.43-4.516
		c1.1-1.968,1.65-4.284,1.65-6.948c0-2.605-0.551-4.892-1.65-6.861c-1.1-1.968-2.576-3.474-4.43-4.516
		c-1.854-1.043-3.879-1.564-6.078-1.564c-2.202,0-4.229,0.521-6.08,1.564c-1.854,1.042-3.344,2.548-4.473,4.516
		c-1.13,1.97-1.694,4.256-1.694,6.861s0.564,4.907,1.694,6.905c1.129,1.996,2.619,3.518,4.473,4.559
		c1.852,1.043,3.878,1.564,6.08,1.564C532.592,96.842,534.617,96.32,536.471,95.277"/>
	<path clip-path="url(#SVGID_2_)" fill="#040700" d="M566.869,122.332c-3.706-2.518-6.197-5.545-7.469-9.076l10.683-4.342
		c0.926,2.199,2.345,3.937,4.255,5.211c1.912,1.273,4.082,1.91,6.515,1.91c3.59,0,6.44-1.1,8.555-3.3
		c2.113-2.201,3.171-5.327,3.171-9.38v-3.475h-0.695c-1.39,1.97-3.214,3.475-5.472,4.517s-4.835,1.563-7.729,1.563
		c-3.648,0-7.051-0.94-10.205-2.822c-3.157-1.88-5.689-4.545-7.6-7.99c-1.912-3.445-2.866-7.455-2.866-12.029
		s0.954-8.584,2.866-12.029c1.91-3.445,4.442-6.109,7.6-7.991c3.154-1.881,6.557-2.823,10.205-2.823
		c2.895,0,5.472,0.521,7.729,1.564c2.258,1.042,4.082,2.548,5.472,4.516h0.695v-4.69h10.943v41.254
		c0,4.747-0.927,8.859-2.779,12.333c-1.854,3.475-4.488,6.152-7.904,8.034c-3.418,1.881-7.412,2.823-11.985,2.823
		C575.235,126.111,570.574,124.852,566.869,122.332 M589.19,92.281c2.259-2.229,3.388-5.283,3.388-9.162
		c0-3.996-1.117-7.079-3.344-9.25c-2.23-2.171-4.966-3.257-8.208-3.257c-3.243,0-5.993,1.1-8.251,3.3
		c-2.258,2.201-3.388,5.27-3.388,9.207s1.13,7.006,3.388,9.206c2.258,2.201,5.008,3.3,8.251,3.3
		C584.21,95.625,586.933,94.512,589.19,92.281"/>
	<rect x="612.467" y="43.774" clip-path="url(#SVGID_2_)" fill="#040700" width="11.378" height="62.188"/>
	<path clip-path="url(#SVGID_2_)" fill="#040700" d="M641.302,104.311c-3.533-2.025-6.297-4.82-8.295-8.381
		c-1.997-3.561-2.996-7.57-2.996-12.029c0-4.227,0.983-8.149,2.953-11.769c1.968-3.618,4.689-6.499,8.164-8.641
		c3.474-2.142,7.353-3.214,11.638-3.214c4.573,0,8.512,0.985,11.813,2.953c3.3,1.969,5.804,4.661,7.513,8.077
		c1.707,3.417,2.562,7.209,2.562,11.378c0,1.333-0.088,2.605-0.26,3.821h-33.265c0.578,3.533,1.981,6.21,4.212,8.034
		c2.229,1.823,4.907,2.735,8.034,2.735c2.606,0,4.849-0.564,6.731-1.693c1.879-1.129,3.372-2.648,4.473-4.56l9.206,4.517
		c-4.517,7.875-11.378,11.812-20.584,11.812C648.799,107.351,644.832,106.337,641.302,104.311 M663.709,78.429
		c-0.116-1.39-0.623-2.765-1.52-4.126c-0.898-1.359-2.143-2.488-3.734-3.387c-1.594-0.897-3.461-1.346-5.603-1.346
		c-2.722,0-5.052,0.796-6.991,2.388c-1.94,1.593-3.344,3.749-4.213,6.471H663.709z"/>
	<path clip-path="url(#SVGID_2_)" fill="#55A052" d="M159.202,58.673c6.215,0,11.252-5.037,11.252-11.252
		c0-6.214-5.037-11.251-11.252-11.251s-11.252,5.037-11.252,11.251C147.95,53.636,152.987,58.673,159.202,58.673"/>
	<path clip-path="url(#SVGID_2_)" fill="#C7512C" d="M125.447,96.179c12.428,0,22.503-10.075,22.503-22.503
		c0-12.429-10.075-22.504-22.503-22.504c-12.429,0-22.503,10.075-22.503,22.504C102.944,86.104,113.018,96.179,125.447,96.179"/>
	<path clip-path="url(#SVGID_2_)" fill="#E4AF00" d="M125.447,156.188c14.5,0,26.254-11.754,26.254-26.254
		c0-14.499-11.754-26.254-26.254-26.254s-26.254,11.755-26.254,26.254C99.193,144.434,110.947,156.188,125.447,156.188"/>
	<path clip-path="url(#SVGID_2_)" fill="#427CBB" d="M50.436,96.179c24.857,0,45.007-20.15,45.007-45.007
		c0-24.856-20.15-45.007-45.007-45.007c-24.856,0-45.007,20.151-45.007,45.007C5.429,76.028,25.58,96.179,50.436,96.179"/>
</g>
</svg>
