<svg xmlns="http://www.w3.org/2000/svg" xmlns:xlink="http://www.w3.org/1999/xlink" width="62" height="27.318" viewBox="0 0 62 27.318">
  <defs>
    <radialGradient id="radial-gradient" cx="0.483" cy="0.49" r="0.521" gradientTransform="matrix(1, 0, 0, -1, 0, 3.727)" gradientUnits="objectBoundingBox">
      <stop offset="0" stop-color="#bd0738"/>
      <stop offset="0.5" stop-color="#bd0738"/>
      <stop offset="0.76" stop-color="#bb0737"/>
      <stop offset="0.86" stop-color="#b40834"/>
      <stop offset="0.94" stop-color="#a7092e"/>
      <stop offset="1" stop-color="#990b28"/>
    </radialGradient>
    <linearGradient id="linear-gradient" x1="0.336" y1="0.05" x2="0.664" y2="0.95" gradientUnits="objectBoundingBox">
      <stop offset="0" stop-color="#f08998"/>
      <stop offset="0.11" stop-color="#e67086"/>
      <stop offset="0.33" stop-color="#d44364"/>
      <stop offset="0.53" stop-color="#c8224c"/>
      <stop offset="0.69" stop-color="#c00e3d"/>
      <stop offset="0.8" stop-color="#bd0738"/>
      <stop offset="1" stop-color="#bd0738"/>
    </linearGradient>
    <linearGradient id="linear-gradient-2" x1="0.098" y1="0.196" x2="0.808" y2="0.902" gradientUnits="objectBoundingBox">
      <stop offset="0" stop-color="#cc3c58"/>
      <stop offset="0.06" stop-color="#c23450"/>
      <stop offset="0.23" stop-color="#ae2341"/>
      <stop offset="0.41" stop-color="#9f1736"/>
      <stop offset="0.64" stop-color="#971030"/>
      <stop offset="1" stop-color="#940e2e"/>
    </linearGradient>
    <linearGradient id="linear-gradient-3" y1="0.5" x2="1" y2="0.5" gradientUnits="objectBoundingBox">
      <stop offset="0" stop-color="#c2c6c9"/>
      <stop offset="0.1" stop-color="#b1b5b8"/>
      <stop offset="0.53" stop-color="#6d7174"/>
      <stop offset="0.84" stop-color="#43474a"/>
      <stop offset="1" stop-color="#33373a"/>
    </linearGradient>
    <linearGradient id="linear-gradient-4" y1="0.5" x2="1" y2="0.5" gradientUnits="objectBoundingBox">
      <stop offset="0" stop-color="#bec3c8"/>
      <stop offset="0.11" stop-color="#acb1b6"/>
      <stop offset="0.53" stop-color="#6b6f72"/>
      <stop offset="0.84" stop-color="#424648"/>
      <stop offset="1" stop-color="#323638"/>
    </linearGradient>
    <linearGradient id="linear-gradient-5" x1="-5.912" y1="12.54" x2="-5.825" y2="12.54" gradientUnits="objectBoundingBox">
      <stop offset="0" stop-color="#bac3c9"/>
      <stop offset="1" stop-color="#26292b"/>
    </linearGradient>
    <linearGradient id="linear-gradient-6" x1="-0.639" y1="2.066" x2="-0.625" y2="2.066" gradientUnits="objectBoundingBox">
      <stop offset="0" stop-color="#c2c6c9"/>
      <stop offset="1" stop-color="#404548"/>
    </linearGradient>
    <linearGradient id="linear-gradient-7" x1="-0.753" y1="2.19" x2="-0.738" y2="2.19" gradientUnits="objectBoundingBox">
      <stop offset="0" stop-color="#c2c6c9"/>
      <stop offset="1" stop-color="#4c5155"/>
    </linearGradient>
    <radialGradient id="radial-gradient-2" cx="0.298" cy="0.282" r="0.767" gradientTransform="translate(0)" gradientUnits="objectBoundingBox">
      <stop offset="0" stop-color="#fff"/>
      <stop offset="0.35" stop-color="#fff"/>
      <stop offset="0.53" stop-color="#fbfbfc"/>
      <stop offset="0.72" stop-color="#eef1f2"/>
      <stop offset="0.91" stop-color="#dadfe3"/>
      <stop offset="1" stop-color="#cdd4d9"/>
    </radialGradient>
    <radialGradient id="radial-gradient-3" cx="0.292" cy="0.269" r="0.782" gradientTransform="translate(0)" gradientUnits="objectBoundingBox">
      <stop offset="0" stop-color="#fff"/>
      <stop offset="0.35" stop-color="#fff"/>
      <stop offset="0.57" stop-color="#fbfbfc"/>
      <stop offset="0.79" stop-color="#eef1f2"/>
      <stop offset="1" stop-color="#dce1e4"/>
    </radialGradient>
  </defs>
  <g id="Capa_2" data-name="Capa 2" transform="translate(-0.004 0)">
    <g id="Layer_1" data-name="Layer 1" transform="translate(0.004 0)">
      <path id="Path_1" data-name="Path 1" d="M309.929,43.5H305.85V61.157h12.53V57.718h-8.451Z" transform="translate(-272.43 -38.747)" fill="#6f6f6e"/>
      <path id="Path_2" data-name="Path 2" d="M433.485,52.289H436.8v3.087a9.316,9.316,0,0,1-2.94.468c-3.673,0-4.9-1.866-4.9-5.654,0-3.612,1.165-5.74,4.836-5.74a4.726,4.726,0,0,1,4.167,1.865l2.539-2.331c-1.545-2.214-4.252-2.885-6.79-2.885-5.711,0-8.717,3.118-8.717,9.059,0,5.916,2.71,9.121,8.683,9.121a12.99,12.99,0,0,0,6.878-1.719V49h-7.075Z" transform="translate(-378.56 -36.609)" fill="#6f6f6e"/>
      <path id="Path_3" data-name="Path 3" d="M13.653,0A13.659,13.659,0,1,0,27.321,13.768V13.55A13.659,13.659,0,0,0,13.653,0Z" transform="translate(-0.004 0)" fill="url(#radial-gradient)"/>
      <path id="Path_4" data-name="Path 4" d="M9.808,9.757C5.244,14.321,4.782,21.276,8.785,25.284s10.957,3.547,15.522-1.019S29.344,12.738,25.34,8.732A9.516,9.516,0,0,0,18.51,6a12.442,12.442,0,0,0-8.7,3.757" transform="translate(-5.398 -5.344)" fill="url(#linear-gradient)"/>
      <path id="Path_5" data-name="Path 5" d="M31.441,36.738l.338-.192V25.007l-.084-.134.084-.025v-.021h.059l1.021-.351.184.316a.119.119,0,0,1,.025.086l-.01,10.507h2.48l.2.311c.019.023.031.048.031.127v1.058a.082.082,0,0,1-.076.09h-3.8a.349.349,0,0,1-.19-.055Zm12.321-6.749H35.315v1.353l.21.281h0a.1.1,0,0,0,.071.027h7.07a10.3,10.3,0,0,1-17.533,6.535,10.319,10.319,0,0,1-.055-14.5,10.381,10.381,0,0,1,7.343-3l.554-.009h.062c.038,0,.071,0,.071-.09V19.473a.227.227,0,0,0-.027-.12l-.249-.313-.563.08-.284.094c-6.415,0-11.225,5.363-11.225,11.748a11.453,11.453,0,0,0,11.626,11.48,11.6,11.6,0,0,0,8.246-3.364,11.459,11.459,0,0,0,3.411-8.184v-.665Zm-15.8-5.349a1.823,1.823,0,1,0,1.836,1.826A1.823,1.823,0,0,0,27.959,24.64Z" transform="translate(-18.492 -16.959)" fill="url(#linear-gradient-2)"/>
      <path id="Path_6" data-name="Path 6" d="M118.788,178.5l-.278.266h4.1l-.268-.273Z" transform="translate(-105.561 -158.986)" fill="#6b7277"/>
      <path id="Path_7" data-name="Path 7" d="M131.282,168.919l.268-.259h-2.682l-.318.259Z" transform="translate(-114.504 -150.23)" fill="#96a2a9"/>
      <path id="Path_8" data-name="Path 8" d="M119.925,68.82H118.51l.266.254h.847Z" transform="translate(-105.561 -61.3)" fill="#98a1a8"/>
      <path id="Path_9" data-name="Path 9" d="M128.7,79.968l.3-.238V68.82l-.3.252Z" transform="translate(-114.628 -61.3)" fill="url(#linear-gradient-3)"/>
      <path id="Path_10" data-name="Path 10" d="M153.55,168.919v.815l.268.273V168.66Z" transform="translate(-136.772 -150.23)" fill="url(#linear-gradient-4)"/>
      <path id="Path_11" data-name="Path 11" d="M118.51,68.82V81.077l.278-.266-.012-11.738Z" transform="translate(-105.561 -61.3)" fill="#c2c6c9"/>
      <path id="Path_12" data-name="Path 12" d="M71.15,72.734a1.514,1.514,0,1,0,.445-1.072A1.519,1.519,0,0,0,71.15,72.734Z" transform="translate(-63.376 -63.438)" fill="none"/>
      <path id="Path_13" data-name="Path 13" d="M68.73,70.552a1.781,1.781,0,1,0,.522-1.261A1.783,1.783,0,0,0,68.73,70.552Zm3.3,0a1.515,1.515,0,1,1-.445-1.072A1.519,1.519,0,0,1,72.031,70.552Z" transform="translate(-61.22 -61.255)" fill="url(#linear-gradient-5)"/>
      <path id="Path_14" data-name="Path 14" d="M160.862,128.729l-7.08-.009-.262.276h7.07l.141-.146Z" transform="translate(-136.745 -114.655)" fill="#555c5e"/>
      <path id="Path_15" data-name="Path 15" d="M153.782,119.113l7.918-.013.268-.27-8.448,0Z" transform="translate(-136.745 -105.845)" fill="#9ea5aa"/>
      <path id="Path_16" data-name="Path 16" d="M42.147,30.583v-.669l-.268.27v.4A11.3,11.3,0,1,1,30.569,19.267L31,19.261l.264-.256-.7-.005A11.577,11.577,0,1,0,42.144,30.583Z" transform="translate(-16.924 -16.924)" fill="url(#linear-gradient-6)"/>
      <path id="Path_17" data-name="Path 17" d="M38.694,29.009,38.4,29h-.281a10.484,10.484,0,1,0,.02,20.968h.27a10.513,10.513,0,0,0,10.325-9.774l.01-.29-.133.121-.141.146a10.218,10.218,0,1,1-10.194-10.9l.688.007Z" transform="translate(-24.62 -25.831)" fill="url(#linear-gradient-7)"/>
      <path id="Path_18" data-name="Path 18" d="M153.782,119.131l-.262-.281V120.2l.262-.276Z" transform="translate(-136.745 -105.863)" fill="#c2c6c9"/>
      <path id="Path_19" data-name="Path 19" d="M128.81,20.148l.264.264V19.05l-.264.256Z" transform="translate(-114.735 -16.968)" fill="url(#linear-gradient-4)"/>
      <path id="Path_20" data-name="Path 20" d="M31.172,25.737v11.97h3.806V36.639H32.263v-10.9Zm.4-5.444A11.441,11.441,0,1,0,43.145,31.732v-.52H34.987v1.06h7.072v.155a10.367,10.367,0,1,1-10.342-11.06h.546V20.3c-.109,0-.286,0-.427-.005Z" transform="translate(-18.073 -18.073)" fill="url(#radial-gradient-2)"/>
      <path id="Path_21" data-name="Path 21" d="M70,71.719a1.639,1.639,0,1,0,1.639-1.639A1.639,1.639,0,0,0,70,71.719" transform="translate(-62.351 -62.422)" fill="url(#radial-gradient-3)"/>
      <path id="Path_22" data-name="Path 22" d="M71.886,70.353a1.622,1.622,0,0,1,1,.353,1.631,1.631,0,1,0-2.295,2.277A1.616,1.616,0,0,1,70.243,72a1.639,1.639,0,0,1,1.639-1.639" transform="translate(-62.304 -62.401)" fill="#fff"/>
      <path id="Path_23" data-name="Path 23" d="M32.27,20.308c-.142,0-.414-.008-.546-.008a11.442,11.442,0,0,0-8.079,19.527c.069.069.141.134.211.2A11.358,11.358,0,0,1,20.7,32.135c0-6.29,4.45-11.512,11.566-11.827" transform="translate(-18.082 -18.082)" fill="#fff"/>
      <path id="Path_24" data-name="Path 24" d="M129.85,169.91a11.022,11.022,0,0,0,2.714.228v-.228Z" transform="translate(-115.662 -151.344)" fill="#fff"/>
      <path id="Path_25" data-name="Path 25" d="M120.943,70.468V70.13H119.85V82.1s.344-1.823.344-11.633Z" transform="translate(-106.754 -62.467)" fill="#fff"/>
      <path id="Path_26" data-name="Path 26" d="M162.938,120.171H154.78v1.061h.3v-.765c7.108,0,7.861-.3,7.861-.3" transform="translate(-137.867 -107.039)" fill="#fff"/>
      <path id="Path_27" data-name="Path 27" d="M53.862,129.91a1.255,1.255,0,0,1-.007.158,10.362,10.362,0,0,1-20.316,2.095,10.5,10.5,0,0,0,10.157,7.7A10.379,10.379,0,0,0,54,129.915Z" transform="translate(-29.875 -115.715)" fill="#fff"/>
    </g>
  </g>
</svg>
