<svg xmlns="http://www.w3.org/2000/svg" width="83.168" height="36.642" viewBox="0 0 83.168 36.642">
  <g id="Capa_2" data-name="Capa 2" transform="translate(-0.004 -20)">
    <g id="Layer_1" data-name="Layer 1" transform="translate(0.004 20)">
      <path id="Path_1467" data-name="Path 1467" d="M311.321,44.19H305.85V67.873h16.807V63.262H311.321Z" transform="translate(-261.023 -37.713)" fill="#fff"/>
      <path id="Path_1468" data-name="Path 1468" d="M436.414,56.8h4.45v4.142a12.544,12.544,0,0,1-3.944.626c-4.926,0-6.568-2.5-6.568-7.582,0-4.847,1.562-7.7,6.487-7.7a6.338,6.338,0,0,1,5.589,2.5l3.4-3.126c-2.068-2.969-5.7-3.868-9.1-3.868-7.66,0-11.686,4.18-11.686,12.153,0,7.935,3.635,12.233,11.646,12.233,3.674,0,7.271-.938,9.225-2.3V52.381h-9.5Z" transform="translate(-362.743 -35.665)" fill="#fff"/>
      <path id="Path_1469" data-name="Path 1469" d="M18.311,0A18.321,18.321,0,1,0,36.646,18.468v-.293A18.321,18.321,0,0,0,18.311,0Zm4.368,24.9v1.432h-5.1V10.28H19.04V24.9Zm10.955-6.6A15.328,15.328,0,1,1,18.108,2.978h.363c.189,0,.429.007.573.007V4.422h-.733A13.9,13.9,0,1,0,32.18,19.253c0-.028,0-.174,0-.208H22.691V17.623H33.634ZM14.66,12.47a2.2,2.2,0,1,1-2.2-2.2,2.2,2.2,0,0,1,2.2,2.2Z" transform="translate(-0.004 0)" fill="#fff"/>
    </g>
  </g>
</svg>
