<svg xmlns="http://www.w3.org/2000/svg" xmlns:xlink="http://www.w3.org/1999/xlink" width="302.346" height="147.328" viewBox="0 0 302.346 147.328">
  <defs>
    <clipPath id="clip-path">
      <rect width="302.346" height="147.328" fill="none"/>
    </clipPath>
    <radialGradient id="radial-gradient" cx="0.483" cy="0.49" r="0.521" gradientTransform="matrix(1, 0, 0, -1, 0, 3.727)" gradientUnits="objectBoundingBox">
      <stop offset="0" stop-color="#be0738"/>
      <stop offset="0.5" stop-color="#be0738"/>
      <stop offset="0.76" stop-color="#bc0737"/>
      <stop offset="0.86" stop-color="#b50834"/>
      <stop offset="0.94" stop-color="#a8092e"/>
      <stop offset="1" stop-color="#9a0b28"/>
    </radialGradient>
    <linearGradient id="linear-gradient" x1="0.336" y1="0.05" x2="0.664" y2="0.95" gradientUnits="objectBoundingBox">
      <stop offset="0" stop-color="#f18a99"/>
      <stop offset="0.11" stop-color="#e77086"/>
      <stop offset="0.33" stop-color="#d54364"/>
      <stop offset="0.53" stop-color="#c9224c"/>
      <stop offset="0.69" stop-color="#c10e3d"/>
      <stop offset="0.8" stop-color="#be0738"/>
      <stop offset="1" stop-color="#be0738"/>
    </linearGradient>
    <linearGradient id="linear-gradient-2" x1="0.098" y1="0.196" x2="0.808" y2="0.902" gradientUnits="objectBoundingBox">
      <stop offset="0" stop-color="#cd3c58"/>
      <stop offset="0.06" stop-color="#c33450"/>
      <stop offset="0.23" stop-color="#af2341"/>
      <stop offset="0.41" stop-color="#a01736"/>
      <stop offset="0.64" stop-color="#981030"/>
      <stop offset="1" stop-color="#950e2e"/>
    </linearGradient>
    <linearGradient id="linear-gradient-3" y1="0.5" x2="1" y2="0.5" gradientUnits="objectBoundingBox">
      <stop offset="0" stop-color="#c2c7ca"/>
      <stop offset="0.11" stop-color="#b0b5b8"/>
      <stop offset="0.53" stop-color="#6e7274"/>
      <stop offset="0.84" stop-color="#44484a"/>
      <stop offset="1" stop-color="#34383a"/>
    </linearGradient>
    <linearGradient id="linear-gradient-4" y1="0.5" x2="1" y2="0.5" gradientUnits="objectBoundingBox">
      <stop offset="0" stop-color="#bfc4c9"/>
      <stop offset="0.11" stop-color="#adb2b7"/>
      <stop offset="0.53" stop-color="#6c7073"/>
      <stop offset="0.84" stop-color="#434749"/>
      <stop offset="1" stop-color="#333739"/>
    </linearGradient>
    <linearGradient id="linear-gradient-5" x1="-5.912" y1="12.54" x2="-5.825" y2="12.54" gradientUnits="objectBoundingBox">
      <stop offset="0" stop-color="#bac4ca"/>
      <stop offset="1" stop-color="#262a2c"/>
    </linearGradient>
    <linearGradient id="linear-gradient-6" x1="-0.639" y1="2.066" x2="-0.625" y2="2.066" gradientUnits="objectBoundingBox">
      <stop offset="0" stop-color="#c2c7ca"/>
      <stop offset="1" stop-color="#404548"/>
    </linearGradient>
    <linearGradient id="linear-gradient-7" x1="-0.753" y1="2.19" x2="-0.738" y2="2.19" gradientUnits="objectBoundingBox">
      <stop offset="0" stop-color="#c2c7ca"/>
      <stop offset="1" stop-color="#4c5155"/>
    </linearGradient>
    <radialGradient id="radial-gradient-2" cx="0.298" cy="0.282" r="0.767" gradientTransform="translate(0)" gradientUnits="objectBoundingBox">
      <stop offset="0" stop-color="#fff"/>
      <stop offset="0.35" stop-color="#fff"/>
      <stop offset="0.53" stop-color="#fbfbfc"/>
      <stop offset="0.72" stop-color="#eef1f3"/>
      <stop offset="0.91" stop-color="#dadfe3"/>
      <stop offset="1" stop-color="#ced5da"/>
    </radialGradient>
    <radialGradient id="radial-gradient-3" cx="0.292" cy="0.269" r="0.782" gradientTransform="translate(0)" gradientUnits="objectBoundingBox">
      <stop offset="0" stop-color="#fff"/>
      <stop offset="0.35" stop-color="#fff"/>
      <stop offset="0.57" stop-color="#fbfbfc"/>
      <stop offset="0.79" stop-color="#eef1f3"/>
      <stop offset="1" stop-color="#dce1e5"/>
    </radialGradient>
  </defs>
  <g id="Capa_2" data-name="Capa 2" clip-path="url(#clip-path)">
    <g id="Capa_2-2" data-name="Capa 2" transform="translate(-0.004 0)">
      <g id="Layer_1" data-name="Layer 1" transform="translate(0.004 0)">
        <path id="Path_28" data-name="Path 28" d="M319.683,272.626v2.966H305.86V252.44h3.691v20.186Z" transform="translate(-155.931 -128.695)" fill="#706f6f"/>
        <path id="Path_29" data-name="Path 29" d="M338.8,259.729h3.613v16.108H338.8Zm-.039-6.819h3.652v3.235H338.76Z" transform="translate(-172.703 -128.935)" fill="#706f6f"/>
        <path id="Path_30" data-name="Path 30" d="M363.269,258.2v2.735H357.71V274.31h-3.618V260.938H351.73V258.2h2.324v-1.961c0-4.843,2.672-6.324,6.372-6.324a10.462,10.462,0,0,1,3.7.6l-.794,2.593a7.064,7.064,0,0,0-2.51-.456c-2.289,0-3.172,1.069-3.172,3.583V258.2Z" transform="translate(-179.315 -127.408)" fill="#706f6f"/>
        <path id="Path_31" data-name="Path 31" d="M381.294,272.914h7.01c0-3.049-1.073-4.343-3.122-4.343-2.784,0-3.775,1.471-3.887,4.343m-3.77,1.52c0-5.6,2.554-8.333,7.7-8.333,5.637,0,6.819,3.353,6.819,7.887v1.436H381.255c.073,3.431,1.4,4.9,4.608,4.9a11.93,11.93,0,0,0,5.177-1.294l.765,2.319a14.593,14.593,0,0,1-6.515,1.637c-5.75,0-7.77-2.814-7.77-8.529" transform="translate(-192.463 -135.659)" fill="#706f6f"/>
        <path id="Path_32" data-name="Path 32" d="M408,258a13.592,13.592,0,0,0,1.789-7.574h3.392a13.544,13.544,0,0,1-2.9,9.02Z" transform="translate(-208.002 -127.67)" fill="#706f6f"/>
        <path id="Path_33" data-name="Path 33" d="M428.721,273.646c1.961.686,3.583,1.711,3.583,4.343,0,3.309-2.588,4.9-6.931,4.9a15.594,15.594,0,0,1-6.093-1.137l1.108-2.632a11.525,11.525,0,0,0,5.02,1.1c1.912,0,3.382-.382,3.382-1.907,0-.912-.676-1.52-2.049-2.015-1.255-.422-2.7-.843-3.8-1.265-1.961-.716-3.431-1.784-3.431-4.221,0-3.431,3.044-4.8,6.74-4.8a15.845,15.845,0,0,1,5.912,1.069l-1.113,2.627a10.74,10.74,0,0,0-4.8-1.069c-2.284,0-3.27.726-3.27,1.789,0,.877.6,1.373,1.961,1.9.833.343,2.627.882,3.77,1.3" transform="translate(-213.753 -135.617)" fill="#706f6f"/>
        <path id="Path_34" data-name="Path 34" d="M487.9,274.018a20.647,20.647,0,0,1-8.27,1.559c-7.466-.034-10.784-4.191-10.784-11.956,0-8.113,4.23-11.961,11.123-11.961,3.274,0,6.171,1.029,7.956,3.2l-2.245,2.02a7.4,7.4,0,0,0-5.672-2.319c-5,0-7.387,3.348-7.387,9.4,0,5.6,2.392,8.647,7.2,8.647a17.373,17.373,0,0,0,4.5-.574v-6.216h-5.333v-2.848H487.9Z" transform="translate(-239.024 -128.297)" fill="#706f6f"/>
        <path id="Path_35" data-name="Path 35" d="M319.683,272.626v2.966H305.86V252.44h3.691v20.186Z" transform="translate(-155.931 -128.695)" fill="#706f6f"/>
        <path id="Path_36" data-name="Path 36" d="M525.221,274.266c0-3.123-.686-5.676-3.77-5.676-3.431,0-4.5,2.132-4.5,6.1,0,3.157.725,5.672,3.735,5.672,3.5,0,4.529-2.1,4.529-6.093m-11.961.152c0-5.6,2.593-8.377,8.191-8.377,5.711,0,7.466,3.235,7.466,8.529,0,5.6-2.593,8.333-8.225,8.333-5.711,0-7.431-3.2-7.431-8.49" transform="translate(-261.664 -135.628)" fill="#706f6f"/>
        <path id="Path_37" data-name="Path 37" d="M561.741,274.266c0-3.123-.686-5.676-3.774-5.676-3.431,0-4.485,2.132-4.485,6.1,0,3.157.725,5.672,3.73,5.672,3.5,0,4.529-2.1,4.529-6.093m-11.961.152c0-5.6,2.588-8.377,8.186-8.377,5.716,0,7.466,3.235,7.466,8.529,0,5.6-2.583,8.333-8.221,8.333-5.716,0-7.431-3.2-7.431-8.49" transform="translate(-280.282 -135.628)" fill="#706f6f"/>
        <path id="Path_38" data-name="Path 38" d="M597.376,270.9V261.2a5.05,5.05,0,0,0-2.662-.725c-2.779,0-4.569,1.559-4.569,5.98,0,3.353,1.142,5.637,4.113,5.637a4.529,4.529,0,0,0,3.118-1.186m-10.956-4.255c0-5.142,2.122-8.794,7.721-8.794a7.039,7.039,0,0,1,3.235.686v-8.127l3.618-.451V270.1l.314,4.225H598.18l-.3-1.064a7.711,7.711,0,0,1-4.76,1.446c-4.608,0-6.7-3.044-6.7-8.073" transform="translate(-298.961 -127.431)" fill="#706f6f"/>
        <path id="Path_39" data-name="Path 39" d="M324.149,43.5h-18.3v79.211h56.211V107.284H324.149Z" transform="translate(-155.926 -22.176)" fill="#706f6f"/>
        <path id="Path_40" data-name="Path 40" d="M463.064,91.3h14.877v13.848a41.793,41.793,0,0,1-13.191,2.1c-16.476,0-21.966-8.373-21.966-25.363,0-16.206,5.226-25.75,21.7-25.75,9.157,0,14.377,2.877,18.691,8.368l11.392-10.456C487.632,44.11,475.49,41.1,464.1,41.1c-25.618,0-39.1,13.985-39.1,40.637,0,26.539,12.157,40.917,38.951,40.917,12.289,0,24.319-3.137,30.853-7.711V76.526h-31.74Z" transform="translate(-216.669 -20.953)" fill="#706f6f"/>
        <path id="Path_41" data-name="Path 41" d="M61.232,0a61.274,61.274,0,1,0,61.319,61.765v-.98A61.274,61.274,0,0,0,61.232,0Z" transform="translate(-0.004 0)" fill="url(#radial-gradient)"/>
        <path id="Path_42" data-name="Path 42" d="M22.874,22.853C2.4,43.328.329,74.529,18.285,92.51s49.152,15.912,69.632-4.574,22.6-51.711,4.632-69.681C84.344,10.034,73.383,6,61.913,6c-13.6,0-27.9,5.711-39.039,16.853" transform="translate(-3.091 -3.059)" fill="url(#linear-gradient)"/>
        <path id="Path_43" data-name="Path 43" d="M68.677,98.432l1.515-.863V45.81l-.377-.6.377-.113V45h.265l4.578-1.574.824,1.417a.534.534,0,0,1,.113.387l-.044,47.137H87.054l.892,1.4c.083.1.137.216.137.569v4.745a.368.368,0,0,1-.343.4H70.7a1.564,1.564,0,0,1-.853-.245Zm55.274-30.274h-37.9v6.069L87,75.486h0a.451.451,0,0,0,.319.123h31.716a46.21,46.21,0,0,1-78.652,29.319,46.293,46.293,0,0,1-.245-65.064c8.7-8.632,19.755-13.186,32.941-13.475l2.485-.039h.279c.172,0,.319,0,.319-.4V20.981a1.019,1.019,0,0,0-.123-.539l-1.118-1.4-2.525.358-1.275.422c-28.779,0-50.358,24.059-50.358,52.7a51.47,51.47,0,0,0,15.314,36.721c9.853,9.8,22.912,14.779,36.843,14.779a52.038,52.038,0,0,0,36.99-15.093,51.407,51.407,0,0,0,15.3-36.716V69.226Zm-70.9-24a8.176,8.176,0,1,0,8.235,8.191A8.176,8.176,0,0,0,53.054,44.163Z" transform="translate(-10.585 -9.707)" fill="url(#linear-gradient-2)"/>
        <path id="Path_44" data-name="Path 44" d="M119.755,178.524l-1.245,1.191h18.377l-1.2-1.225Z" transform="translate(-60.419 -90.995)" fill="#6a7277"/>
        <path id="Path_45" data-name="Path 45" d="M140.8,169.822l1.2-1.162H129.976l-1.426,1.162Z" transform="translate(-65.537 -85.984)" fill="#97a3ab"/>
        <path id="Path_46" data-name="Path 46" d="M124.858,68.82H118.51l1.191,1.137,3.8,0Z" transform="translate(-60.419 -35.085)" fill="#99a2a8"/>
        <path id="Path_47" data-name="Path 47" d="M128.724,118.83l1.324-1.069V68.82l-1.358,1.132Z" transform="translate(-65.609 -35.085)" fill="url(#linear-gradient-3)"/>
        <path id="Path_48" data-name="Path 48" d="M153.55,169.822v3.657l1.2,1.225V168.66Z" transform="translate(-78.282 -85.984)" fill="url(#linear-gradient-4)"/>
        <path id="Path_49" data-name="Path 49" d="M118.51,68.82v54.985l1.245-1.191L119.7,69.957Z" transform="translate(-60.419 -35.085)" fill="#c2c7ca"/>
        <path id="Path_50" data-name="Path 50" d="M71.15,78.014a6.794,6.794,0,1,0,2-4.811A6.814,6.814,0,0,0,71.15,78.014Z" transform="translate(-36.274 -36.308)" fill="none"/>
        <path id="Path_51" data-name="Path 51" d="M68.73,76.765a7.99,7.99,0,1,0,2.341-5.656,8,8,0,0,0-2.341,5.656Zm14.809,0a6.794,6.794,0,1,1-2-4.809A6.814,6.814,0,0,1,83.539,76.765Z" transform="translate(-35.041 -35.059)" fill="url(#linear-gradient-5)"/>
        <path id="Path_52" data-name="Path 52" d="M186.456,128.759l-31.76-.039-1.176,1.24h31.716l.632-.657Z" transform="translate(-78.267 -65.622)" fill="#555c5e"/>
        <path id="Path_53" data-name="Path 53" d="M154.7,120.1l35.52-.059,1.2-1.211-37.9.01Z" transform="translate(-78.267 -60.58)" fill="#9fa6ab"/>
        <path id="Path_54" data-name="Path 54" d="M122.838,70.961v-3l-1.2,1.211v1.789A50.711,50.711,0,1,1,70.9,20.2l1.956-.025,1.186-1.147L70.892,19a51.936,51.936,0,1,0,51.931,51.961Z" transform="translate(-9.688 -9.686)" fill="url(#linear-gradient-6)"/>
        <path id="Path_55" data-name="Path 55" d="M77.228,29.039,75.89,29H74.63a47.032,47.032,0,1,0,.088,94.064l1.211,0a47.162,47.162,0,0,0,46.319-43.848l.044-1.3-.6.544-.632.657a45.837,45.837,0,1,1-45.73-48.907l3.088.029Z" transform="translate(-14.093 -14.784)" fill="url(#linear-gradient-7)"/>
        <path id="Path_56" data-name="Path 56" d="M154.7,120.11l-1.176-1.26v6.078l1.176-1.24Z" transform="translate(-78.267 -60.59)" fill="#c2c7ca"/>
        <path id="Path_57" data-name="Path 57" d="M128.81,23.976,130,25.163V19.05L128.81,20.2Z" transform="translate(-65.67 -9.712)" fill="url(#linear-gradient-4)"/>
        <path id="Path_58" data-name="Path 58" d="M69.109,44.726v53.7H86.182V93.633H74V44.726ZM70.893,20.3a51.323,51.323,0,1,0,51.926,51.314V69.285h-36.6V74.04h31.725v.7a46.5,46.5,0,1,1-46.4-49.618H74v-4.8c-.49,0-1.284,0-1.917-.025Z" transform="translate(-10.346 -10.344)" fill="url(#radial-gradient-2)"/>
        <path id="Path_59" data-name="Path 59" d="M70,77.433a7.353,7.353,0,1,0,7.353-7.353A7.353,7.353,0,0,0,70,77.433" transform="translate(-35.688 -35.727)" fill="url(#radial-gradient-3)"/>
        <path id="Path_60" data-name="Path 60" d="M78.644,71.386A7.274,7.274,0,0,1,83.11,72.97,7.319,7.319,0,1,0,72.816,83.185a7.25,7.25,0,0,1-1.539-4.412,7.353,7.353,0,0,1,7.353-7.353" transform="translate(-35.661 -35.715)" fill="#fff"/>
        <path id="Path_61" data-name="Path 61" d="M74,20.334c-.637,0-1.858-.034-2.451-.034A51.331,51.331,0,0,0,35.3,107.9c.309.309.632.6.946.907A50.951,50.951,0,0,1,22.113,73.393c0-28.216,19.961-51.642,51.887-53.059" transform="translate(-10.351 -10.349)" fill="#fff"/>
        <path id="Path_62" data-name="Path 62" d="M129.85,169.91s3.5,1.024,12.176,1.024V169.91Z" transform="translate(-66.2 -86.621)" fill="#fff"/>
        <path id="Path_63" data-name="Path 63" d="M124.752,71.645V70.13h-4.9v53.7s1.544-8.176,1.544-52.186Z" transform="translate(-61.102 -35.753)" fill="#fff"/>
        <path id="Path_64" data-name="Path 64" d="M191.378,120.175h-36.6v4.76h1.333V121.5c31.887,0,35.265-1.333,35.265-1.333" transform="translate(-78.909 -61.263)" fill="#fff"/>
        <path id="Path_65" data-name="Path 65" d="M124.707,129.91a5.63,5.63,0,0,1-.029.711,46.483,46.483,0,0,1-91.137,9.4A47.093,47.093,0,0,0,79.1,174.542a46.56,46.56,0,0,0,46.2-44.608Z" transform="translate(-17.101 -66.229)" fill="#fff"/>
      </g>
    </g>
  </g>
</svg>
