<svg xmlns="http://www.w3.org/2000/svg" width="82.281" height="79.539" viewBox="0 0 82.281 79.539">
  <g id="website" transform="translate(0 -8.533)">
    <g id="Group_425" data-name="Group 425" transform="translate(0 8.533)">
      <g id="Group_424" data-name="Group 424">
        <path id="Path_1983" data-name="Path 1983" d="M76.794,8.533H5.487A5.493,5.493,0,0,0,0,14.02V59.273a1.372,1.372,0,0,0,1.371,1.371H80.91a1.372,1.372,0,0,0,1.371-1.371V14.02A5.493,5.493,0,0,0,76.794,8.533ZM79.538,57.9H2.743V14.02a2.747,2.747,0,0,1,2.744-2.744H76.794a2.747,2.747,0,0,1,2.744,2.744Z" transform="translate(0 -8.533)" fill="#a50034"/>
      </g>
    </g>
    <g id="Group_427" data-name="Group 427" transform="translate(0 57.902)">
      <g id="Group_426" data-name="Group 426">
        <path id="Path_1984" data-name="Path 1984" d="M80.91,315.733H1.371A1.372,1.372,0,0,0,0,317.1v6.855a5.493,5.493,0,0,0,5.487,5.487H76.794a5.493,5.493,0,0,0,5.487-5.487V317.1A1.372,1.372,0,0,0,80.91,315.733Zm-1.371,8.227a2.747,2.747,0,0,1-2.744,2.744H5.487a2.747,2.747,0,0,1-2.744-2.744v-5.484h76.8v5.484Z" transform="translate(0 -315.733)" fill="#a50034"/>
      </g>
    </g>
    <g id="Group_429" data-name="Group 429" transform="translate(35.655 63.387)">
      <g id="Group_428" data-name="Group 428">
        <path id="Path_1985" data-name="Path 1985" d="M231.466,349.867h-8.228a1.371,1.371,0,0,0,0,2.743h8.228a1.371,1.371,0,1,0,0-2.743Z" transform="translate(-221.867 -349.867)" fill="#a50034"/>
      </g>
    </g>
    <g id="Group_431" data-name="Group 431" transform="translate(5.486 14.019)">
      <g id="Group_430" data-name="Group 430">
        <path id="Path_1986" data-name="Path 1986" d="M104.073,42.667H35.505a1.372,1.372,0,0,0-1.371,1.371V87.922a1.372,1.372,0,0,0,1.371,1.371h68.568a1.372,1.372,0,0,0,1.371-1.371V44.038A1.372,1.372,0,0,0,104.073,42.667ZM102.7,86.55H36.877V45.41H102.7Z" transform="translate(-34.134 -42.667)" fill="#a50034"/>
      </g>
    </g>
    <g id="Group_433" data-name="Group 433" transform="translate(19.199 79.844)">
      <g id="Group_432" data-name="Group 432">
        <path id="Path_1987" data-name="Path 1987" d="M159.236,452.267H123.581a4.114,4.114,0,1,0,0,8.228h35.655a4.114,4.114,0,1,0,0-8.228Zm0,5.485H123.581a1.371,1.371,0,0,1,0-2.743h35.655a1.371,1.371,0,1,1,0,2.743Z" transform="translate(-119.467 -452.267)" fill="#a50034"/>
      </g>
    </g>
    <g id="Group_435" data-name="Group 435" transform="translate(24.685 68.873)">
      <g id="Group_434" data-name="Group 434">
        <path id="Path_1988" data-name="Path 1988" d="M185.142,394.972c-4.55,0-6.857-3.23-6.857-9.6A1.372,1.372,0,0,0,176.914,384H163.2a1.372,1.372,0,0,0-1.371,1.371c0,6.37-2.307,9.6-6.857,9.6a1.371,1.371,0,0,0,0,2.743h30.17a1.371,1.371,0,0,0,0-2.743Zm-23.49,0c1.688-1.87,2.682-4.656,2.883-8.228h11.046c.2,3.572,1.193,6.358,2.883,8.228Z" transform="translate(-153.601 -384.001)" fill="#a50034"/>
      </g>
    </g>
    <g id="Group_437" data-name="Group 437" transform="translate(48.007 37.331)">
      <g id="Group_436" data-name="Group 436">
        <path id="Path_1989" data-name="Path 1989" d="M316.246,199.339l-3.31-3.31,1.842-1.842a1.371,1.371,0,0,0-.575-2.283l-13.714-4.114a1.372,1.372,0,0,0-1.707,1.707L302.9,203.21a1.371,1.371,0,0,0,2.283.576l1.939-1.941,3.31,3.312a1.371,1.371,0,0,0,1.939,0l3.878-3.88A1.37,1.37,0,0,0,316.246,199.339Zm-4.848,2.91-3.014-3.016a1.793,1.793,0,0,0-2.531,0l-.99.99-2.722-9.074,9.074,2.722-1.061,1.061a1.554,1.554,0,0,0,0,2.2l3.181,3.181Z" transform="translate(-298.723 -187.731)" fill="#a50034"/>
      </g>
    </g>
    <g id="Group_439" data-name="Group 439" transform="translate(17.828 19.504)">
      <g id="Group_438" data-name="Group 438">
        <path id="Path_1990" data-name="Path 1990" d="M150.7,76.8h-38.4a1.372,1.372,0,0,0-1.371,1.371v6.857a1.372,1.372,0,0,0,1.371,1.371h38.4a1.372,1.372,0,0,0,1.371-1.371V78.171A1.372,1.372,0,0,0,150.7,76.8Zm-1.371,6.857H113.677V79.543h35.655Z" transform="translate(-110.934 -76.8)" fill="#a50034"/>
      </g>
    </g>
    <g id="Group_441" data-name="Group 441" transform="translate(23.313 34.589)">
      <g id="Group_440" data-name="Group 440">
        <path id="Path_1991" data-name="Path 1991" d="M157.409,170.667H146.438a1.372,1.372,0,0,0-1.371,1.371v5.485a1.372,1.372,0,0,0,1.371,1.371h10.971a1.372,1.372,0,0,0,1.371-1.371v-5.485A1.372,1.372,0,0,0,157.409,170.667Zm-1.371,5.485H147.81V173.41h8.228Z" transform="translate(-145.067 -170.667)" fill="#a50034"/>
      </g>
    </g>
    <g id="Group_443" data-name="Group 443" transform="translate(17.828 19.504)">
      <g id="Group_442" data-name="Group 442">
        <path id="Path_1992" data-name="Path 1992" d="M150.7,76.8h-38.4a1.372,1.372,0,0,0-1.371,1.371v26.056a1.372,1.372,0,0,0,1.371,1.371h32.647a1.372,1.372,0,0,0,1.314-1.766l-1.736-5.788,5.78,1.735a1.372,1.372,0,0,0,1.765-1.314V78.171A1.372,1.372,0,0,0,150.7,76.8Zm-1.371,19.822-6.455-1.936a1.372,1.372,0,0,0-1.707,1.709l1.939,6.462H113.677V79.543h35.655Z" transform="translate(-110.934 -76.8)" fill="#a50034"/>
      </g>
    </g>
  </g>
</svg>
