<svg xmlns="http://www.w3.org/2000/svg" width="35.714" height="25.112" viewBox="0 0 35.714 25.112">
  <path id="Icon_awesome-youtube" data-name="Icon awesome-youtube" d="M36.018,8.429A4.488,4.488,0,0,0,32.86,5.251C30.075,4.5,18.907,4.5,18.907,4.5s-11.168,0-13.953.751A4.488,4.488,0,0,0,1.8,8.429c-.746,2.8-.746,8.652-.746,8.652s0,5.849.746,8.652a4.421,4.421,0,0,0,3.158,3.127c2.785.751,13.953.751,13.953.751s11.168,0,13.953-.751a4.421,4.421,0,0,0,3.158-3.127c.746-2.8.746-8.652.746-8.652s0-5.849-.746-8.652ZM15.254,22.391V11.771l9.334,5.31-9.334,5.31Z" transform="translate(-1.05 -4.5)" fill="#a50034"/>
</svg>
